<?xml version="1.0" encoding="UTF-8"?>
<svg version="1.1" xmlns="http://www.w3.org/2000/svg" width="512" height="512">
<path d="M0 0 C1.01790619 0.00215515 2.03581238 0.0043103 3.08456421 0.00653076 C17.69363523 0.05620146 32.02575853 0.30709809 46.375 3.3125 C47.34985352 3.51117676 48.32470703 3.70985352 49.32910156 3.91455078 C96.7390174 13.83185533 141.61271733 35.15303148 176.375 69.3125 C177.42518311 70.32618652 177.42518311 70.32618652 178.49658203 71.36035156 C188.27046226 80.79849578 197.37637692 90.32317068 205.375 101.3125 C206.23149066 102.46244831 207.08826433 103.61218589 207.9453125 104.76171875 C213.98534209 112.95184258 219.36867614 121.45629618 224.375 130.3125 C224.7771875 131.01971191 225.179375 131.72692383 225.59375 132.45556641 C240.34720851 158.66024447 249.87670334 187.59796386 254.375 217.3125 C254.55232666 218.43132568 254.72965332 219.55015137 254.91235352 220.70288086 C256.59376341 232.42485947 256.73234341 244.04748976 256.6875 255.875 C256.68534485 256.89540375 256.6831897 257.9158075 256.68096924 258.96713257 C256.63133352 273.59460524 256.38419712 287.94513838 253.375 302.3125 C253.07698486 303.77478027 253.07698486 303.77478027 252.77294922 305.26660156 C242.65232806 353.6484774 220.7358123 397.63678269 186.375 433.3125 C185.74287598 433.97185547 185.11075195 434.63121094 184.45947266 435.31054688 C175.31502521 444.79880305 166.01765991 453.5387044 155.375 461.3125 C154.22394983 462.17056152 153.07290823 463.02863451 151.921875 463.88671875 C143.73224019 469.92427396 135.22961724 475.30707302 126.375 480.3125 C125.66778809 480.7146875 124.96057617 481.116875 124.23193359 481.53125 C101.69703464 494.2185914 77.43201763 502.6719835 52.1875 508.0625 C51.26267822 508.26133789 50.33785645 508.46017578 49.38500977 508.66503906 C33.3005391 511.93208772 17.4346011 512.72080603 1.0625 512.6875 C-0.45177582 512.68668427 -0.45177582 512.68668427 -1.99664307 512.68585205 C-18.50623539 512.64508601 -34.42282001 511.73779309 -50.625 508.3125 C-51.66688477 508.09287598 -52.70876953 507.87325195 -53.78222656 507.64697266 C-88.74910553 500.0198964 -121.73342515 485.47362644 -150.625 464.3125 C-151.19798828 463.89645508 -151.77097656 463.48041016 -152.36132812 463.05175781 C-161.01533696 456.72921718 -168.91953388 449.75176229 -176.625 442.3125 C-177.30143555 441.6632959 -177.97787109 441.0140918 -178.67480469 440.34521484 C-188.1444147 431.21579191 -196.86512211 421.93610596 -204.625 411.3125 C-205.48306152 410.16144983 -206.34113451 409.01040823 -207.19921875 407.859375 C-213.23677396 399.66974019 -218.61957302 391.16711724 -223.625 382.3125 C-224.0271875 381.60528809 -224.429375 380.89807617 -224.84375 380.16943359 C-237.8691741 357.03404164 -246.61801461 331.86287591 -251.9375 305.875 C-252.08485596 305.15610596 -252.23221191 304.43721191 -252.3840332 303.6965332 C-255.35789088 288.05024391 -255.99800362 272.57681954 -255.9375 256.6875 C-255.93534485 255.66959381 -255.9331897 254.65168762 -255.93096924 253.60293579 C-255.88129854 238.99386477 -255.63040191 224.66174147 -252.625 210.3125 C-252.42632324 209.33764648 -252.22764648 208.36279297 -252.02294922 207.35839844 C-241.90232806 158.9765226 -219.9858123 114.98821731 -185.625 79.3125 C-184.99287598 78.65314453 -184.36075195 77.99378906 -183.70947266 77.31445312 C-174.56502521 67.82619695 -165.26765991 59.0862956 -154.625 51.3125 C-153.47394983 50.45443848 -152.32290823 49.59636549 -151.171875 48.73828125 C-142.98224019 42.70072604 -134.47961724 37.31792698 -125.625 32.3125 C-124.91778809 31.9103125 -124.21057617 31.508125 -123.48193359 31.09375 C-100.34654164 18.0683259 -75.17537591 9.31948539 -49.1875 4 C-48.46860596 3.85264404 -47.74971191 3.70528809 -47.0090332 3.5534668 C-31.36274391 0.57960912 -15.88931954 -0.06050362 0 0 Z " fill="#C40F2D" transform="translate(255.625,-0.3125)"/>
<path d="M0 0 C71.28 0 142.56 0 216 0 C212.48712315 21.07726109 212.48712315 21.07726109 209.8125 30.3125 C209.35967651 31.89369629 209.35967651 31.89369629 208.89770508 33.50683594 C198.64767339 68.45311163 181.6623248 100.3091432 158 128 C157.36320313 128.74894531 156.72640625 129.49789062 156.0703125 130.26953125 C144.25297532 143.76520621 131.51448412 156.43558025 117 167 C115.85005169 167.85649066 114.70031411 168.71326433 113.55078125 169.5703125 C105.36065742 175.61034209 96.85620382 180.99367614 88 186 C86.93918213 186.60328125 86.93918213 186.60328125 85.85693359 187.21875 C61.7873266 200.77014519 28.23576847 216 0 216 C0 144.72 0 73.44 0 0 Z " fill="#F5F4F5" transform="translate(294,294)"/>
<path d="M0 0 C21.07991244 3.51331874 21.07991244 3.51331874 30.3125 6.1875 C31.36808105 6.49010742 32.42366211 6.79271484 33.51123047 7.10449219 C72.49839991 18.54822496 108.92273535 38.42696537 138 67 C138.70012207 67.67579102 139.40024414 68.35158203 140.12158203 69.04785156 C149.89546226 78.48599578 159.00137692 88.01067068 167 99 C167.85649066 100.14994831 168.71326433 101.29968589 169.5703125 102.44921875 C175.61034209 110.63934258 180.99367614 119.14379618 186 128 C186.60328125 129.06081787 186.60328125 129.06081787 187.21875 130.14306641 C200.85300395 154.3598448 216 187.615375 216 216 C144.72 216 73.44 216 0 216 C0 144.72 0 73.44 0 0 Z " fill="#F5F4F5" transform="translate(294,2)"/>
<path d="M0 0 C0 71.28 0 142.56 0 216 C-71.28 216 -142.56 216 -216 216 C-212.48712315 194.92273891 -212.48712315 194.92273891 -209.8125 185.6875 C-209.35967651 184.10630371 -209.35967651 184.10630371 -208.89770508 182.49316406 C-198.64767339 147.54688837 -181.6623248 115.6908568 -158 88 C-157.04480469 86.87658203 -157.04480469 86.87658203 -156.0703125 85.73046875 C-144.25297532 72.23479379 -131.51448412 59.56441975 -117 49 C-115.85005169 48.14350934 -114.70031411 47.28673567 -113.55078125 46.4296875 C-105.36065742 40.38965791 -96.85620382 35.00632386 -88 30 C-87.29278809 29.5978125 -86.58557617 29.195625 -85.85693359 28.78125 C-61.62751447 15.13987922 -28.38546516 0 0 0 Z " fill="#F5F4F5" transform="translate(218,2)"/>
<path d="M0 0 C1.24427183 0.004369 1.24427183 0.004369 2.51368046 0.00882626 C3.3862952 0.00797024 4.25890995 0.00711422 5.15796757 0.00623226 C8.11440364 0.00456666 11.07078404 0.0101175 14.027215 0.01555538 C16.16997081 0.01586146 18.31272672 0.01572866 20.45548248 0.01519012 C26.21522894 0.01496354 31.9749548 0.02077674 37.73469639 0.02780056 C43.13123486 0.03347807 48.52776822 0.03376273 53.92430973 0.03447628 C69.72676202 0.03973226 85.52921045 0.05369329 101.33165836 0.06658077 C154.26572086 0.09751827 154.26572086 0.09751827 208.26915836 0.12908077 C208.26915836 71.40908077 208.26915836 142.68908077 208.26915836 216.12908077 C182.49179227 211.44228694 182.49179227 211.44228694 174.45665836 209.00408077 C173.47785709 208.71114132 172.49905582 208.41820187 171.49059391 208.11638546 C133.02242868 196.24617383 98.23585671 176.09505494 69.26915836 148.12908077 C68.25450504 147.15527462 68.25450504 147.15527462 67.21935368 146.16179562 C57.74974366 137.03237268 49.02903625 127.75268674 41.26915836 117.12908077 C40.41109685 115.97803061 39.55302385 114.826989 38.69493961 113.67595577 C32.6573844 105.48632096 27.27458535 96.98369802 22.26915836 88.12908077 C21.86697086 87.42186886 21.46478336 86.71465694 21.05040836 85.98601437 C7.62755719 62.14472363 -7.86017101 29.08853827 -6.73084164 1.12908077 C-4.91665955 -0.68510131 -2.41484219 0.00643014 0 0 Z " fill="#F5F4F5" transform="translate(9.730841636657715,293.8709192276001)"/>
<path d="M0 0 C5.62054208 3.37232525 5.62054208 3.37232525 8.1640625 5.6015625 C8.72295166 6.0869751 9.28184082 6.5723877 9.85766602 7.07250977 C10.44088623 7.58483154 11.02410645 8.09715332 11.625 8.625 C12.87544875 9.7106191 14.1267595 10.79524606 15.37890625 11.87890625 C15.9939502 12.4114502 16.60899414 12.94399414 17.24267578 13.49267578 C19.64957643 15.55716656 22.10096059 17.56362879 24.5625 19.5625 C28.58358509 22.82778643 32.55333581 26.14571109 36.5 29.5 C41.26905969 33.5501864 46.0791259 37.54352242 50.9296875 41.49609375 C60.5278435 49.32359756 70.09158236 57.18955621 79.51879883 65.22241211 C83.5648982 68.66008515 87.69438388 71.9789203 91.87890625 75.24609375 C94.0585586 77.04842139 96.0325662 78.97010798 98 81 C73.6762534 99.92219736 47.97246689 114.43838118 19 125 C18.31953613 125.25426758 17.63907227 125.50853516 16.93798828 125.77050781 C10.72230145 128.08901772 6.83689431 129 0 129 C0 86.43 0 43.86 0 0 Z " fill="#022062" transform="translate(321,374)"/>
<path d="M0 0 C7.24183081 0.72418308 12.75334012 1.57015043 19.375 4 C20.22860107 4.30687744 21.08220215 4.61375488 21.96166992 4.92993164 C45.68764635 13.64936371 67.46702038 25.4711562 87.875 40.3125 C88.58390381 40.81620117 89.29280762 41.31990234 90.02319336 41.83886719 C90.99784546 42.56251465 90.99784546 42.56251465 91.9921875 43.30078125 C92.57339355 43.72528564 93.15459961 44.14979004 93.75341797 44.5871582 C95 46 95 46 95 50 C93.16799335 51.87765466 91.41690723 53.44373779 89.375 55.0625 C88.78960449 55.54219238 88.20420898 56.02188477 87.60107422 56.51611328 C82.9216005 60.32915611 78.14975224 64.02777871 73.38110352 67.72827148 C68.23686314 71.74718708 63.3152248 75.9971357 58.40380859 80.29541016 C53.03589278 84.9900572 47.54737385 89.51878809 42 94 C35.55899728 99.23213417 29.17821583 104.52608395 22.85400391 109.89819336 C17.62450974 114.33366012 12.33040913 118.68612722 7 123 C5.6696875 124.11568359 5.6696875 124.11568359 4.3125 125.25390625 C2 127 2 127 0 127 C0 85.09 0 43.18 0 0 Z " fill="#022062" transform="translate(321,9)"/>
<path d="M0 0 C0 41.91 0 83.82 0 127 C-7.24135802 126.2758642 -12.75380563 125.43046281 -19.375 123 C-20.23222656 122.69094727 -21.08945313 122.38189453 -21.97265625 122.06347656 C-48.83774201 112.17045776 -74.03559821 98.42686593 -96 80 C-94.48318506 76.18653872 -92.25546974 74.32747903 -89.0625 71.8125 C-88.07378906 71.02488281 -87.08507812 70.23726563 -86.06640625 69.42578125 C-84.54853516 68.22501953 -84.54853516 68.22501953 -83 67 C-81.16368682 65.50364943 -79.33027886 64.00372551 -77.5 62.5 C-74.77618311 60.2700196 -72.05119199 58.04164013 -69.3203125 55.8203125 C-64.3377293 51.76203459 -59.39779658 47.65981193 -54.5 43.5 C-47.84951621 37.85159028 -41.09879436 32.33176851 -34.328125 26.828125 C-29.34400975 22.76592702 -24.40107461 18.66161677 -19.5 14.5 C-17.33477378 12.66495868 -15.16811529 10.83162695 -13 9 C-12.20070068 8.32445068 -12.20070068 8.32445068 -11.38525391 7.63525391 C-9.86567414 6.35543526 -8.33923162 5.08377848 -6.8125 3.8125 C-5.93207031 3.07644531 -5.05164063 2.34039062 -4.14453125 1.58203125 C-2 0 -2 0 0 0 Z " fill="#022062" transform="translate(191,376)"/>
<path d="M0 0 C0 41.25 0 82.5 0 125 C-3.89409353 123.05295323 -6.81755285 120.7595275 -10.0625 117.9375 C-11.22981968 116.93544131 -12.39779826 115.93414971 -13.56640625 114.93359375 C-14.14664551 114.43585449 -14.72688477 113.93811523 -15.32470703 113.42529297 C-17.6879124 111.41474314 -20.09143529 109.45585357 -22.5 107.5 C-27.1045358 103.75212202 -31.64019191 99.93016556 -36.1640625 96.0859375 C-39.5805954 93.18755177 -43.02504838 90.328449 -46.5 87.5 C-50.53983452 84.2117626 -54.53083277 80.87268539 -58.5 77.5 C-63.39350412 73.34361683 -68.32827848 69.24380252 -73.30859375 65.19140625 C-75.15969458 63.68419643 -77.00578258 62.17081573 -78.84765625 60.65234375 C-84.13530313 56.29567184 -89.46755421 52.04233145 -95 48 C-93.66152325 44.89070483 -92.37917792 43.23746026 -89.61328125 41.30078125 C-88.58871826 40.57737549 -88.58871826 40.57737549 -87.54345703 39.83935547 C-86.80724121 39.33549316 -86.07102539 38.83163086 -85.3125 38.3125 C-84.5479248 37.78285645 -83.78334961 37.25321289 -82.99560547 36.70751953 C-75.84748016 31.80548286 -68.55195715 27.25051476 -61 23 C-60.29713867 22.60071289 -59.59427734 22.20142578 -58.87011719 21.79003906 C-41.95328295 12.26456009 -19.78229104 0 0 0 Z " fill="#022062" transform="translate(191,9)"/>
<path d="M0 0 C3.24503646 1.32977029 5.15909949 3.10905257 7.6796875 5.546875 C8.65279751 6.46842188 9.6281141 7.38764353 10.60546875 8.3046875 C11.09740723 8.7677832 11.5893457 9.23087891 12.09619141 9.70800781 C14.27641531 11.70940518 16.56398906 13.56434716 18.8671875 15.421875 C23.16323342 18.89057969 27.37400749 22.44118011 31.5546875 26.046875 C36.5676364 30.36644279 41.64007063 34.59785425 46.77734375 38.76953125 C49.89865117 41.32891554 52.9791878 43.93281291 56.0546875 46.546875 C60.90780012 50.67098845 65.81281879 54.72353171 70.75390625 58.7421875 C73.82244537 61.26720575 76.84508562 63.84172269 79.8671875 66.421875 C84.30319244 70.20479047 88.82051699 73.85244007 93.4296875 77.421875 C99.32538801 81.98977496 104.98259486 86.79400299 110.58154297 91.72021484 C111.17338379 92.2405127 111.76522461 92.76081055 112.375 93.296875 C113.15254639 93.98523438 113.15254639 93.98523438 113.94580078 94.6875 C115.57467775 96.14128098 115.57467775 96.14128098 117.73779297 97.33203125 C119.5546875 99.046875 119.5546875 99.046875 119.9453125 101.96484375 C119.89890625 103.04378906 119.8525 104.12273437 119.8046875 105.234375 C119.76859375 106.32105469 119.7325 107.40773438 119.6953125 108.52734375 C119.64890625 109.35878906 119.6025 110.19023437 119.5546875 111.046875 C82.21279753 113.41703177 82.21279753 113.41703177 74.07592773 106.85375977 C71.84756577 104.5789139 69.80118824 102.23929267 67.87841797 99.70068359 C65.87733618 97.20062309 63.45765501 95.36837453 60.9296875 93.421875 C56.92729504 90.17958081 52.97881765 86.88284513 49.0546875 83.546875 C43.27938994 78.64126931 37.43476253 73.82658511 31.5546875 69.046875 C25.6746014 64.26715589 19.83034533 59.45206536 14.0546875 54.546875 C6.91372335 48.48420583 -0.33764038 42.56335355 -7.6171875 36.66796875 C-8.70519653 35.7860083 -8.70519653 35.7860083 -9.81518555 34.88623047 C-11.25583839 33.71875787 -12.6973811 32.55238234 -14.13989258 31.38720703 C-14.79884521 30.85337402 -15.45779785 30.31954102 -16.13671875 29.76953125 C-16.72654541 29.29265869 -17.31637207 28.81578613 -17.92407227 28.32446289 C-19.4453125 27.046875 -19.4453125 27.046875 -21.4453125 25.046875 C-21.03442637 19.11470655 -15.09771755 14.31548336 -11.4453125 10.046875 C-10.64609375 9.06460938 -9.846875 8.08234375 -9.0234375 7.0703125 C-8.25515625 6.15507813 -7.486875 5.23984375 -6.6953125 4.296875 C-5.99921875 3.45640625 -5.303125 2.6159375 -4.5859375 1.75 C-2.4453125 0.046875 -2.4453125 0.046875 0 0 Z " fill="#C2112E" transform="translate(71.4453125,79.953125)"/>
<path d="M0 0 C1.7804969 0.04522978 3.56110513 0.08627936 5.34179688 0.12304688 C9.66815472 0.22137261 13.98907548 0.37615922 18.3125 0.5625 C19.19039432 10.98080855 19.19039432 10.98080855 17.27099609 14.43896484 C15.7677903 15.91002204 14.24364165 17.07459871 12.5 18.25 C11.61248047 18.92095703 11.61248047 18.92095703 10.70703125 19.60546875 C9.49955715 20.51755219 8.28122708 21.41544933 7.05224609 22.29833984 C4.55146886 24.11549175 2.18869831 26.08642962 -0.1875 28.0625 C-1.5178125 29.1453125 -1.5178125 29.1453125 -2.875 30.25 C-6.00549666 32.82396392 -9.09922461 35.43819086 -12.1875 38.0625 C-17.03709381 42.18351634 -21.93910806 46.23241354 -26.875 50.25 C-30.00549666 52.82396392 -33.09922461 55.43819086 -36.1875 58.0625 C-41.03709381 62.18351634 -45.93910806 66.23241354 -50.875 70.25 C-54.00549666 72.82396392 -57.09922461 75.43819086 -60.1875 78.0625 C-65.03570125 82.18233299 -69.93595845 86.23045964 -74.87109375 90.24609375 C-77.46000848 92.37539532 -80.02296374 94.53068514 -82.57641602 96.70214844 C-84.75670594 98.55579245 -86.94477602 100.40014084 -89.1328125 102.24462891 C-90.62773927 103.51184227 -92.11101129 104.7927658 -93.59375 106.07421875 C-94.4703125 106.81285156 -95.346875 107.55148437 -96.25 108.3125 C-97.39662109 109.29476562 -97.39662109 109.29476562 -98.56640625 110.296875 C-100.6875 111.5625 -100.6875 111.5625 -102.6328125 111.609375 C-105.7103062 110.04137441 -107.75699045 107.62192645 -110 105.0625 C-110.48057861 104.52367187 -110.96115723 103.98484375 -111.45629883 103.4296875 C-122.6875 90.72945801 -122.6875 90.72945801 -122.6875 85.5625 C-120.66336465 83.69009894 -118.71770527 82.11124495 -116.5 80.5 C-115.20666057 79.52434892 -113.91503236 78.54642585 -112.625 77.56640625 C-111.96628906 77.06898926 -111.30757812 76.57157227 -110.62890625 76.05908203 C-107.67137423 73.77919379 -104.83367147 71.36844444 -102 68.9375 C-97.29777242 64.92287224 -92.55116136 60.97235671 -87.7578125 57.06640625 C-78.17888111 49.25458052 -68.63520048 41.40277163 -59.21923828 33.39501953 C-55.02421818 29.83221596 -50.76835722 26.34924425 -46.5 22.875 C-42.36510481 19.47519729 -38.29214451 16.00435479 -34.21875 12.53125 C-33.67130127 12.08837646 -33.12385254 11.64550293 -32.55981445 11.18920898 C-30.56908103 9.5179335 -30.56908103 9.5179335 -28.52416992 7.23461914 C-19.84326909 -1.3366211 -11.43236439 -0.50770299 0 0 Z " fill="#C2112E" transform="translate(172.6875,320.4375)"/>
<path d="M0 0 C38.39634269 -2.37014461 38.39634269 -2.37014461 46.54907227 4.19311523 C48.7653387 6.46600509 50.79273511 8.8024898 52.69238281 11.34619141 C54.67823999 13.8578039 57.09667753 15.68095373 59.625 17.625 C63.65094006 20.88523377 67.61798488 24.20490489 71.5625 27.5625 C75.33080561 30.76748518 79.12246519 33.92688084 83 37 C86.87754607 40.07312808 90.66899861 43.23273386 94.4375 46.4375 C99.22388803 50.50731718 104.04988707 54.52088757 108.921875 58.48828125 C113.53127566 62.2495054 118.12014371 66.035599 122.70825195 69.82275391 C125.94806486 72.49520783 129.19105321 75.16219264 132.46484375 77.79296875 C133.44582031 78.58316406 134.42679688 79.37335938 135.4375 80.1875 C136.28183594 80.86167969 137.12617188 81.53585937 137.99609375 82.23046875 C140 84 140 84 142 87 C135.71936502 95.40536043 129.19722495 103.35869096 122 111 C117.96194134 109.63733356 115.45631882 107.8590849 112.375 104.9375 C108.91579043 101.73339438 105.41723434 98.65157731 101.75 95.6875 C97.4354891 92.19567126 93.20294472 88.62419165 89 85 C83.98700394 80.68048535 78.91461883 76.44902234 73.77734375 72.27734375 C70.65603633 69.71795946 67.5754997 67.11406209 64.5 64.5 C60.53096457 61.12716411 56.53982979 57.78823355 52.5 54.5 C47.8954642 50.75212202 43.35980809 46.93016556 38.8359375 43.0859375 C34.53986956 39.44140593 30.18631659 35.8721266 25.81640625 32.31640625 C22.1031382 29.26235916 18.4300308 26.16153794 14.79418945 23.015625 C12.24463611 20.82404506 9.73221564 18.81632739 6.953125 16.91015625 C6.04046875 16.27980469 5.1278125 15.64945312 4.1875 15 C3.37667969 14.484375 2.56585938 13.96875 1.73046875 13.4375 C-1.1408836 9.39297661 -0.31196794 4.80109871 0 0 Z " fill="#C2112E" transform="translate(321,321)"/>
<path d="M0 0 C3.11319511 1.47618292 5.12496761 3.83816945 7.3671875 6.37890625 C7.84518799 6.90967773 8.32318848 7.44044922 8.81567383 7.98730469 C13.30499052 13.0532515 17.28410121 18.42451418 21.1171875 24.00390625 C17.6997416 28.36958202 14.12570048 31.80066557 9.6796875 35.12890625 C4.61274165 39.01127504 -0.31069183 43.00865717 -5.1328125 47.19140625 C-9.7843544 51.22108084 -14.4984558 55.13298833 -19.328125 58.94921875 C-22.94133297 61.85525452 -26.46502987 64.86286207 -29.99633789 67.86743164 C-33.42872214 70.78407686 -36.8888299 73.66091313 -40.3828125 76.50390625 C-44.42264545 79.79214237 -48.41368921 83.13117067 -52.3828125 86.50390625 C-57.20682956 90.60223013 -62.04748389 94.67355142 -67.01660156 98.59619141 C-69.91068269 100.93187913 -69.91068269 100.93187913 -72.3269043 103.6027832 C-78.38164109 109.67887709 -82.93487144 111.88724815 -91.5859375 111.98046875 C-95.10774025 111.95000738 -98.61538593 111.79859823 -102.1328125 111.62890625 C-103.95690802 111.57864228 -105.78113803 111.53303316 -107.60546875 111.4921875 C-112.03462568 111.38301778 -116.45720225 111.21109774 -120.8828125 111.00390625 C-121.8364168 101.58955537 -121.8364168 101.58955537 -119.74755859 98.11621094 C-118.10993452 96.52685914 -116.42886073 95.20281347 -114.5703125 93.87890625 C-113.9316626 93.38011963 -113.2930127 92.88133301 -112.63500977 92.36743164 C-111.34069301 91.35883745 -110.03592805 90.36349775 -108.72070312 89.38232422 C-106.18682492 87.48191557 -103.7573396 85.46385034 -101.3203125 83.44140625 C-100.44246094 82.72855469 -99.56460937 82.01570313 -98.66015625 81.28125 C-95.53884883 78.72186571 -92.4583122 76.11796834 -89.3828125 73.50390625 C-84.53327199 69.38282833 -79.63120286 65.33399142 -74.6953125 61.31640625 C-71.56481584 58.74244233 -68.47108789 56.12821539 -65.3828125 53.50390625 C-60.53321869 49.38288991 -55.63120444 45.33399271 -50.6953125 41.31640625 C-47.0018734 38.27957855 -43.35982764 35.1842967 -39.71655273 32.08764648 C-36.32327141 29.20845305 -32.90013464 26.37186388 -29.4453125 23.56640625 C-25.14303055 20.06293981 -20.90728743 16.48980949 -16.6953125 12.87890625 C-16.09807373 12.3689209 -15.50083496 11.85893555 -14.88549805 11.33349609 C-10.99679824 8.00094251 -7.2072232 4.58348135 -3.53125 1.015625 C-1.8828125 0.00390625 -1.8828125 0.00390625 0 0 Z " fill="#C2112E" transform="translate(441.8828125,79.99609375)"/>
<path d="M0 0 C6.07899182 4.34213701 11.67419523 9.13262791 17.29272461 14.04321289 C21.8747859 18.04236099 26.53174887 21.92928024 31.2578125 25.7578125 C34.37000256 28.3025377 37.4372312 30.8962207 40.5 33.5 C45.36002419 37.62912908 50.26888993 41.69175314 55.2109375 45.72265625 C58.37633736 48.30728947 61.5368704 50.89738703 64.6875 53.5 C66.20923828 54.75296875 66.20923828 54.75296875 67.76171875 56.03125 C68.50035156 56.6809375 69.23898438 57.330625 70 58 C70 58.33 70 58.66 70 59 C39.64 59 9.28 59 -22 59 C-21.27578314 51.75783137 -20.42943703 46.24700127 -18 39.625 C-17.69529785 38.77574951 -17.3905957 37.92649902 -17.07666016 37.05151367 C-12.37782764 24.24795978 -6.7777412 11.83552054 0 0 Z " fill="#042061" transform="translate(31,132)"/>
<path d="M0 0 C29.7 0 59.4 0 90 0 C84.36734694 5.63265306 84.36734694 5.63265306 81.6171875 8.015625 C81.01310059 8.53979004 80.40901367 9.06395508 79.78662109 9.60400391 C79.15578613 10.14718262 78.52495117 10.69036133 77.875 11.25 C77.21193848 11.82282715 76.54887695 12.3956543 75.86572266 12.98583984 C71.21874212 16.98644009 66.50690375 20.89796818 61.7421875 24.7578125 C58.62999852 27.30253683 55.56273503 29.89618225 52.5 32.5 C47.66461946 36.60915149 42.77716737 40.64664812 37.85546875 44.65234375 C32.51869123 49.04003634 27.26261359 53.52385012 22 58 C10.10458497 43.74794615 2.61596512 19.91452432 -1 2 C-0.67 1.34 -0.34 0.68 0 0 Z " fill="#031F60" transform="translate(9,321)"/>
<path d="M0 0 C11.89541503 14.25205385 19.38403488 38.08547568 23 56 C22.505 56.99 22.505 56.99 22 58 C-7.7 58 -37.4 58 -68 58 C-62.36961451 52.36961451 -62.36961451 52.36961451 -59.8359375 50.203125 C-59.27704834 49.72415771 -58.71815918 49.24519043 -58.14233398 48.75170898 C-57.55911377 48.25614502 -56.97589355 47.76058105 -56.375 47.25 C-55.75890869 46.72414307 -55.14281738 46.19828613 -54.50805664 45.65649414 C-49.9796677 41.8030572 -45.39319301 38.02560313 -40.77734375 34.27734375 C-37.65603733 31.71796028 -34.57546576 29.11410084 -31.5 26.5 C-27.55349519 23.14552873 -23.58357928 19.82778171 -19.5625 16.5625 C-12.93311581 11.16877026 -6.47034752 5.58244582 0 0 Z " fill="#031F60" transform="translate(481,133)"/>
<path d="M0 0 C29.04 0 58.08 0 88 0 C87.27574704 7.24252959 86.42896013 12.75264644 84 19.375 C83.54512207 20.64561279 83.54512207 20.64561279 83.08105469 21.94189453 C78.80869876 33.60177646 73.6227095 44.93251484 68 56 C64.13955021 54.36139181 61.1956514 51.78128812 58.0625 49.0625 C56.8998054 48.06632943 55.73704306 47.07023791 54.57421875 46.07421875 C53.9817334 45.5642334 53.38924805 45.05424805 52.77880859 44.52880859 C49.98879218 42.13091087 47.18291123 39.75189623 44.375 37.375 C43.83431885 36.91681885 43.2936377 36.4586377 42.73657227 35.98657227 C38.46566887 32.3750093 34.14002891 28.83385853 29.80078125 25.3046875 C26.7322478 22.77967392 23.70941829 20.20536152 20.6875 17.625 C15.35244404 13.06963948 9.88280177 8.71026743 4.31713867 4.43994141 C2.86120383 3.31481589 1.42799559 2.16038023 0 1 C0 0.67 0 0.34 0 0 Z " fill="#032060" transform="translate(415,321)"/>
</svg>
