<?xml version="1.0" encoding="UTF-8"?>
<svg version="1.1" xmlns="http://www.w3.org/2000/svg" width="512" height="512">
<path d="M0 0 C1.01201477 0.00054382 2.02402954 0.00108765 3.06671143 0.00164795 C19.59530572 0.04238044 35.52913999 0.94575778 51.75 4.375 C52.79188477 4.59462402 53.83376953 4.81424805 54.90722656 5.04052734 C101.20049311 15.13814785 143.61413721 37.49728758 177.75 70.375 C178.7390332 71.32318604 178.7390332 71.32318604 179.74804688 72.29052734 C189.23630305 81.43497479 197.9762044 90.73234009 205.75 101.375 C206.60806152 102.52605017 207.46613451 103.67709177 208.32421875 104.828125 C214.36177396 113.01775981 219.74457302 121.52038276 224.75 130.375 C225.1521875 131.08221191 225.554375 131.78942383 225.96875 132.51806641 C240.72111537 158.72080287 250.25635806 187.66130797 254.75 217.375 C254.92660156 218.49745117 255.10320312 219.61990234 255.28515625 220.77636719 C256.9420586 232.38947743 257.14873513 243.90679945 257.125 255.625 C257.12418427 257.14302216 257.12418427 257.14302216 257.12335205 258.69171143 C257.08261956 275.22030572 256.17924222 291.15413999 252.75 307.375 C252.53037598 308.41688477 252.31075195 309.45876953 252.08447266 310.53222656 C241.98685215 356.82549311 219.62771242 399.23913721 186.75 433.375 C186.11787598 434.03435547 185.48575195 434.69371094 184.83447266 435.37304688 C175.69002521 444.86130305 166.39265991 453.6012044 155.75 461.375 C154.59894983 462.23306152 153.44790823 463.09113451 152.296875 463.94921875 C144.10569386 469.98736829 135.59195895 475.34595521 126.75 480.375 C126.11819824 480.73948242 125.48639648 481.10396484 124.83544922 481.47949219 C98.75035999 496.40973018 69.41414886 505.88885054 39.75 510.375 C38.62754883 510.55160156 37.50509766 510.72820312 36.34863281 510.91015625 C24.73552257 512.5670586 13.21820055 512.77373513 1.5 512.75 C-0.01802216 512.74918427 -0.01802216 512.74918427 -1.56671143 512.74835205 C-18.10117395 512.7076051 -34.02064864 511.78386907 -50.25 508.375 C-51.77294678 508.06151611 -51.77294678 508.06151611 -53.32666016 507.74169922 C-94.63866685 498.96380189 -133.2705226 479.96113066 -165.25 452.375 C-165.99507813 451.74078125 -166.74015625 451.1065625 -167.5078125 450.453125 C-181.01279833 438.64198485 -193.68418743 425.89139772 -204.25 411.375 C-205.10649066 410.22505169 -205.96326433 409.07531411 -206.8203125 407.92578125 C-212.86034209 399.73565742 -218.24367614 391.23120382 -223.25 382.375 C-223.6521875 381.66778809 -224.054375 380.96057617 -224.46875 380.23193359 C-237.4941741 357.09654164 -246.24301461 331.92537591 -251.5625 305.9375 C-251.70985596 305.21860596 -251.85721191 304.49971191 -252.0090332 303.7590332 C-254.79840125 289.08339502 -255.59892619 274.55831162 -255.56567383 259.64770508 C-255.5625221 256.70811513 -255.58604926 253.7695442 -255.61132812 250.83007812 C-255.65598737 237.45693808 -254.45051542 224.56083289 -252.25 211.375 C-252.06187744 210.23796631 -251.87375488 209.10093262 -251.67993164 207.92944336 C-251.21367402 205.3337378 -250.6949418 202.76225061 -250.125 200.1875 C-249.92036133 199.26155029 -249.71572266 198.33560059 -249.50488281 197.3815918 C-239.16905661 152.93090415 -216.86092102 112.19559436 -185.25 79.375 C-184.61787598 78.71564453 -183.98575195 78.05628906 -183.33447266 77.37695312 C-174.19002521 67.88869695 -164.89265991 59.1487956 -154.25 51.375 C-153.09894983 50.51693848 -151.94790823 49.65886549 -150.796875 48.80078125 C-142.60569386 42.76263171 -134.09195895 37.40404479 -125.25 32.375 C-124.61819824 32.01051758 -123.98639648 31.64603516 -123.33544922 31.27050781 C-97.25035999 16.34026982 -67.91414886 6.86114946 -38.25 2.375 C-37.12754883 2.19839844 -36.00509766 2.02179687 -34.84863281 1.83984375 C-23.23552257 0.1829414 -11.71820055 -0.02373513 0 0 Z " fill="#EFEEEE" transform="translate(255.25,-0.375)"/>
<path d="M0 0 C164.34 0 328.68 0 498 0 C498 9.01958457 498 9.01958457 496.6015625 13.66015625 C496.29226807 14.68955322 495.98297363 15.7189502 495.66430664 16.77954102 C495.14984985 18.40460571 495.14984985 18.40460571 494.625 20.0625 C494.26849365 21.20066162 493.9119873 22.33882324 493.54467773 23.51147461 C489.82825732 35.04141503 485.21338553 46.07342984 480 57 C479.45738525 58.14106201 479.45738525 58.14106201 478.90380859 59.30517578 C467.89658163 82.06301486 452.49835665 102.83202366 435 121 C434.36787598 121.65935547 433.73575195 122.31871094 433.08447266 122.99804688 C423.94002521 132.48630305 414.64265991 141.2262044 404 149 C402.84894983 149.85806152 401.69790823 150.71613451 400.546875 151.57421875 C392.35569386 157.61236829 383.84195895 162.97095521 375 168 C374.36819824 168.36448242 373.73639648 168.72896484 373.08544922 169.10449219 C347.00035999 184.03473018 317.66414886 193.51385054 288 198 C286.31632324 198.26490234 286.31632324 198.26490234 284.59863281 198.53515625 C272.98552257 200.1920586 261.46820055 200.39873513 249.75 200.375 C248.73798523 200.37445618 247.72597046 200.37391235 246.68328857 200.37335205 C230.14882605 200.3326051 214.22935136 199.40886907 198 196 C196.47705322 195.68651611 196.47705322 195.68651611 194.92333984 195.36669922 C153.61133315 186.58880189 114.9794774 167.58613066 83 140 C82.25492187 139.36578125 81.50984375 138.7315625 80.7421875 138.078125 C67.23720167 126.26698485 54.56581257 113.51639772 44 99 C43.14350934 97.85005169 42.28673567 96.70031411 41.4296875 95.55078125 C35.38965791 87.36065742 30.00632386 78.85620382 25 70 C24.5978125 69.29278809 24.195625 68.58557617 23.78125 67.85693359 C14.69369484 51.7158737 7.91737493 34.74256922 2.4375 17.0625 C2.05996582 15.86572632 2.05996582 15.86572632 1.67480469 14.64477539 C1.33884277 13.50770142 1.33884277 13.50770142 0.99609375 12.34765625 C0.80200928 11.69804932 0.6079248 11.04844238 0.40795898 10.37915039 C-0.17720514 6.96656844 0 3.46238828 0 0 Z " fill="#6CA544" transform="translate(7,312)"/>
<path d="M0 0 C1.51802216 0.00081573 1.51802216 0.00081573 3.06671143 0.00164795 C19.59530572 0.04238044 35.52913999 0.94575778 51.75 4.375 C52.79188477 4.59462402 53.83376953 4.81424805 54.90722656 5.04052734 C101.20049311 15.13814785 143.61413721 37.49728758 177.75 70.375 C178.7390332 71.32318604 178.7390332 71.32318604 179.74804688 72.29052734 C189.23630305 81.43497479 197.9762044 90.73234009 205.75 101.375 C206.60806152 102.52605017 207.46613451 103.67709177 208.32421875 104.828125 C214.36177396 113.01775981 219.74457302 121.52038276 224.75 130.375 C225.1521875 131.08221191 225.554375 131.78942383 225.96875 132.51806641 C233.9435121 146.68261456 242.06028821 162.23672928 244.75 178.375 C83.71 178.375 -77.33 178.375 -243.25 178.375 C-240.99509362 168.22792127 -240.99509362 168.22792127 -239.21875 163.9140625 C-238.8259082 162.95798096 -238.43306641 162.00189941 -238.02832031 161.0168457 C-237.60647461 160.02128662 -237.18462891 159.02572754 -236.75 158 C-236.30495117 156.94707764 -235.85990234 155.89415527 -235.40136719 154.80932617 C-223.34189794 126.72368065 -206.4539491 101.39037284 -185.25 79.375 C-184.61787598 78.71564453 -183.98575195 78.05628906 -183.33447266 77.37695312 C-174.19002521 67.88869695 -164.89265991 59.1487956 -154.25 51.375 C-153.09894983 50.51693848 -151.94790823 49.65886549 -150.796875 48.80078125 C-142.60569386 42.76263171 -134.09195895 37.40404479 -125.25 32.375 C-124.61819824 32.01051758 -123.98639648 31.64603516 -123.33544922 31.27050781 C-97.25035999 16.34026982 -67.91414886 6.86114946 -38.25 2.375 C-37.12754883 2.19839844 -36.00509766 2.02179687 -34.84863281 1.83984375 C-23.23552257 0.1829414 -11.71820055 -0.02373513 0 0 Z " fill="#338AF3" transform="translate(255.25,-0.375)"/>
<path d="M0 0 C164.34 0 328.68 0 498 0 C498 8 498 8 494 22 C332.3 22 170.6 22 4 22 C0 8 0 8 0 0 Z " fill="#D70027" transform="translate(7,312)"/>
<path d="M0 0 C161.7 0 323.4 0 490 0 C494 14 494 14 494 22 C329.66 22 165.32 22 -4 22 C-4 14 -4 14 0 0 Z " fill="#D70027" transform="translate(11,178)"/>
<path d="M0 0 C0.83144531 0.00902344 1.66289062 0.01804688 2.51953125 0.02734375 C4.55481337 0.0507378 6.58994564 0.08660275 8.625 0.125 C8.625 0.785 8.625 1.445 8.625 2.125 C7.58601563 2.58648437 6.54703125 3.04796875 5.4765625 3.5234375 C-9.403982 10.37324031 -18.19426828 18.86631857 -24.375 34.125 C-28.39005898 46.19703354 -27.08105644 59.43135359 -22.12109375 71.06640625 C-15.4594722 84.11737599 -5.69364985 92.4464836 8.0546875 97.34765625 C8.90289062 97.60417969 9.75109375 97.86070312 10.625 98.125 C4.80603947 102.00430702 -3.15350638 100.73844291 -9.80078125 99.47265625 C-21.66869012 96.16101222 -33.77777112 89.19171684 -40.40771484 78.45214844 C-48.10012476 64.71809226 -50.68555536 51.28654586 -47.72265625 35.69140625 C-46.81011337 32.99294254 -45.74151858 30.62284998 -44.375 28.125 C-43.64603516 26.74828125 -43.64603516 26.74828125 -42.90234375 25.34375 C-35.68327371 12.91944033 -25.61292692 6.37878654 -12.6015625 0.97265625 C-8.34137368 -0.1465459 -4.38121113 -0.09083851 0 0 Z " fill="#ECEEF0" transform="translate(144.375,55.875)"/>
<path d="M0 0 C0.66 0 1.32 0 2 0 C2.66 2.97 3.32 5.94 4 9 C7.63 9 11.26 9 15 9 C10.375 13.875 10.375 13.875 7 15 C7.66 18.3 8.32 21.6 9 25 C5.9168649 23.80100302 2.93720508 22.52299523 0 21 C-1.423125 22.2375 -1.423125 22.2375 -2.875 23.5 C-5.75 26 -5.75 26 -8 26 C-6.515 20.555 -6.515 20.555 -5 15 C-6.32 14.34 -7.64 13.68 -9 13 C-10.37086915 11.70529025 -11.71340837 10.37849103 -13 9 C-9.37 9 -5.74 9 -2 9 C-1.34 6.03 -0.68 3.06 0 0 Z " fill="#DDE6F0" transform="translate(220,93)"/>
<path d="M0 0 C0.66 0 1.32 0 2 0 C2.66 2.97 3.32 5.94 4 9 C7.63 9 11.26 9 15 9 C10.375 13.875 10.375 13.875 7 15 C7.66 18.3 8.32 21.6 9 25 C7.68 24.34 6.36 23.68 5 23 C3.33859237 22.32033324 1.67299959 21.65061095 0 21 C-1.98 22.65 -3.96 24.3 -6 26 C-6.66 25.67 -7.32 25.34 -8 25 C-7.01 21.7 -6.02 18.4 -5 15 C-6.32 14.34 -7.64 13.68 -9 13 C-10.37086915 11.70529025 -11.71340837 10.37849103 -13 9 C-9.37 9 -5.74 9 -2 9 C-1.34 6.03 -0.68 3.06 0 0 Z " fill="#DEE6F0" transform="translate(255,93)"/>
<path d="M0 0 C0.66 0 1.32 0 2 0 C2.66 2.97 3.32 5.94 4 9 C7.63 9 11.26 9 15 9 C10.375 13.875 10.375 13.875 7 15 C7.66 18.3 8.32 21.6 9 25 C7.68 24.34 6.36 23.68 5 23 C3.33859237 22.32033324 1.67299959 21.65061095 0 21 C-1.98 22.65 -3.96 24.3 -6 26 C-6.66 25.67 -7.32 25.34 -8 25 C-7.67 24.0925 -7.34 23.185 -7 22.25 C-5.80394277 18.92954193 -5.80394277 18.92954193 -6 15 C-7.51534291 13.47141018 -7.51534291 13.47141018 -9.5 12.3125 C-10.67729696 11.55800215 -11.84704067 10.79118893 -13 10 C-13 9.67 -13 9.34 -13 9 C-9.37 9 -5.74 9 -2 9 C-1.34 6.03 -0.68 3.06 0 0 Z " fill="#DFE6F0" transform="translate(325,93)"/>
<path d="M0 0 C0.66 0 1.32 0 2 0 C2.66 2.97 3.32 5.94 4 9 C7.63 9 11.26 9 15 9 C10.375 13.875 10.375 13.875 7 15 C7.66 18.3 8.32 21.6 9 25 C7.68 24.34 6.36 23.68 5 23 C3.33859237 22.32033324 1.67299959 21.65061095 0 21 C-1.98 22.65 -3.96 24.3 -6 26 C-6.66 25.67 -7.32 25.34 -8 25 C-7.67 24.0925 -7.34 23.185 -7 22.25 C-5.80394277 18.92954193 -5.80394277 18.92954193 -6 15 C-7.51534291 13.47141018 -7.51534291 13.47141018 -9.5 12.3125 C-10.67729696 11.55800215 -11.84704067 10.79118893 -13 10 C-13 9.67 -13 9.34 -13 9 C-9.37 9 -5.74 9 -2 9 C-1.34 6.03 -0.68 3.06 0 0 Z " fill="#DFE6F0" transform="translate(290,93)"/>
<path d="M0 0 C0.66 0 1.32 0 2 0 C2.66 2.97 3.32 5.94 4 9 C7.63 9 11.26 9 15 9 C12.74259377 11.33524782 10.7194239 13.18705073 8 15 C8.33 18.3 8.66 21.6 9 25 C7.948125 24.29875 6.89625 23.5975 5.8125 22.875 C2.78188284 21.09533142 2.78188284 21.09533142 -0.6875 21.625 C-1.8321875 22.305625 -1.8321875 22.305625 -3 23 C-4.98 23.99 -4.98 23.99 -7 25 C-6.67 21.7 -6.34 18.4 -6 15 C-7.155 14.195625 -8.31 13.39125 -9.5 12.5625 C-10.68653894 11.73616038 -11.8588092 10.88791631 -13 10 C-13 9.67 -13 9.34 -13 9 C-9.37 9 -5.74 9 -2 9 C-1.34 6.03 -0.68 3.06 0 0 Z " fill="#E5EAF0" transform="translate(290,57)"/>
<path d="M0 0 C0.66 0 1.32 0 2 0 C2.66 2.97 3.32 5.94 4 9 C7.63 9 11.26 9 15 9 C12.74259377 11.33524782 10.7194239 13.18705073 8 15 C8.33 18.3 8.66 21.6 9 25 C7.948125 24.29875 6.89625 23.5975 5.8125 22.875 C2.78188284 21.09533142 2.78188284 21.09533142 -0.6875 21.625 C-1.8321875 22.305625 -1.8321875 22.305625 -3 23 C-4.98 23.99 -4.98 23.99 -7 25 C-6.67 21.7 -6.34 18.4 -6 15 C-7.155 14.195625 -8.31 13.39125 -9.5 12.5625 C-10.68653894 11.73616038 -11.8588092 10.88791631 -13 10 C-13 9.67 -13 9.34 -13 9 C-9.37 9 -5.74 9 -2 9 C-1.34 6.03 -0.68 3.06 0 0 Z " fill="#E5EAF0" transform="translate(255,57)"/>
<path d="M0 0 C0.66 0 1.32 0 2 0 C2.66 2.97 3.32 5.94 4 9 C7.63 9 11.26 9 15 9 C14.21625 9.61875 13.4325 10.2375 12.625 10.875 C10.03162353 12.89858661 10.03162353 12.89858661 8 15 C7.97746557 17.44963177 7.97746557 17.44963177 8.375 20.125 C8.48585937 21.03507812 8.59671875 21.94515625 8.7109375 22.8828125 C8.80632812 23.58148438 8.90171875 24.28015625 9 25 C7.9275 24.319375 6.855 23.63875 5.75 22.9375 C3.01152446 21.35938319 3.01152446 21.35938319 -0.0625 21 C-2.86761723 22.44780244 -5.42215509 24.18379109 -8 26 C-7.34 22.37 -6.68 18.74 -6 15 C-7.155 14.195625 -8.31 13.39125 -9.5 12.5625 C-10.68653894 11.73616038 -11.8588092 10.88791631 -13 10 C-13 9.67 -13 9.34 -13 9 C-9.37 9 -5.74 9 -2 9 C-1.855625 7.88625 -1.71125 6.7725 -1.5625 5.625 C-1 2 -1 2 0 0 Z " fill="#E5EAF0" transform="translate(185,130)"/>
<path d="M0 0 C0.66 0 1.32 0 2 0 C2.66 2.97 3.32 5.94 4 9 C7.63 9 11.26 9 15 9 C12.74259377 11.33524782 10.7194239 13.18705073 8 15 C8.33 18.3 8.66 21.6 9 25 C7.948125 24.29875 6.89625 23.5975 5.8125 22.875 C2.78188284 21.09533142 2.78188284 21.09533142 -0.6875 21.625 C-1.8321875 22.305625 -1.8321875 22.305625 -3 23 C-4.98 23.99 -4.98 23.99 -7 25 C-6.67 21.7 -6.34 18.4 -6 15 C-7.155 14.195625 -8.31 13.39125 -9.5 12.5625 C-10.68653894 11.73616038 -11.8588092 10.88791631 -13 10 C-13 9.67 -13 9.34 -13 9 C-9.37 9 -5.74 9 -2 9 C-1.34 6.03 -0.68 3.06 0 0 Z " fill="#E5EAF0" transform="translate(325,57)"/>
<path d="M0 0 C0.66 0 1.32 0 2 0 C2.66 2.97 3.32 5.94 4 9 C7.63 9 11.26 9 15 9 C12.74259377 11.33524782 10.7194239 13.18705073 8 15 C8.33 18.3 8.66 21.6 9 25 C8.113125 24.319375 7.22625 23.63875 6.3125 22.9375 C3.27992523 20.78963195 3.27992523 20.78963195 0.5 21 C-2.65840911 22.26336365 -5.24745099 24.0156042 -8 26 C-7.34 22.37 -6.68 18.74 -6 15 C-7.155 14.195625 -8.31 13.39125 -9.5 12.5625 C-10.68653894 11.73616038 -11.8588092 10.88791631 -13 10 C-13 9.67 -13 9.34 -13 9 C-9.37 9 -5.74 9 -2 9 C-1.34 6.03 -0.68 3.06 0 0 Z " fill="#E5EAF0" transform="translate(220,130)"/>
<path d="M0 0 C0.66 0 1.32 0 2 0 C2.66 2.97 3.32 5.94 4 9 C7.63 9 11.26 9 15 9 C12.74259377 11.33524782 10.7194239 13.18705073 8 15 C8.33 18.3 8.66 21.6 9 25 C8.113125 24.319375 7.22625 23.63875 6.3125 22.9375 C3.2706339 20.76871359 3.2706339 20.76871359 0.4375 21.0625 C-2.26507997 22.10195384 -4.58272882 23.41150751 -7 25 C-6.67 21.7 -6.34 18.4 -6 15 C-7.155 14.195625 -8.31 13.39125 -9.5 12.5625 C-10.68653894 11.73616038 -11.8588092 10.88791631 -13 10 C-13 9.67 -13 9.34 -13 9 C-9.37 9 -5.74 9 -2 9 C-1.34 6.03 -0.68 3.06 0 0 Z " fill="#E7EBF0" transform="translate(255,130)"/>
<path d="M0 0 C0.66 0 1.32 0 2 0 C2.66 2.97 3.32 5.94 4 9 C7.63 9 11.26 9 15 9 C12.74259377 11.33524782 10.7194239 13.18705073 8 15 C8.33 18.3 8.66 21.6 9 25 C8.113125 24.319375 7.22625 23.63875 6.3125 22.9375 C3.2706339 20.76871359 3.2706339 20.76871359 0.4375 21.0625 C-2.26507997 22.10195384 -4.58272882 23.41150751 -7 25 C-6.85820312 24.33613281 -6.71640625 23.67226562 -6.5703125 22.98828125 C-6.1108952 20.22774745 -5.80761397 17.7960103 -6 15 C-7.74783613 12.60143103 -9.44069426 11.61915261 -12 10 C-12 9.67 -12 9.34 -12 9 C-8.7 9 -5.4 9 -2 9 C-1.34 6.03 -0.68 3.06 0 0 Z " fill="#E7EBF0" transform="translate(325,130)"/>
<path d="M0 0 C0.66 0 1.32 0 2 0 C2.66 2.97 3.32 5.94 4 9 C7.63 9 11.26 9 15 9 C12.74259377 11.33524782 10.7194239 13.18705073 8 15 C8.33 18.3 8.66 21.6 9 25 C8.113125 24.319375 7.22625 23.63875 6.3125 22.9375 C3.2706339 20.76871359 3.2706339 20.76871359 0.4375 21.0625 C-2.26507997 22.10195384 -4.58272882 23.41150751 -7 25 C-6.85820312 24.33613281 -6.71640625 23.67226562 -6.5703125 22.98828125 C-6.1108952 20.22774745 -5.80761397 17.7960103 -6 15 C-7.74783613 12.60143103 -9.44069426 11.61915261 -12 10 C-12 9.67 -12 9.34 -12 9 C-8.7 9 -5.4 9 -2 9 C-1.34 6.03 -0.68 3.06 0 0 Z " fill="#E7EBF0" transform="translate(290,130)"/>
</svg>
