<svg width="380" height="828" viewBox="0 0 380 828" fill="none" xmlns="http://www.w3.org/2000/svg">
    <g clip-path="url(#clip0_480_7385)">
        <rect width="380" height="828" fill="white"/>
        <path d="M81.9756 106.946C44.6807 105.406 35.3404 62.8318 -1.95373 61.2746C-5.48343 61.1272 -11 61.2746 -11 61.2746V-12H380C380 -12 354.049 31.327 327.733 47.7238C279.777 77.6039 237.09 31.3626 182.992 47.7238C139.211 60.9649 127.682 108.832 81.9756 106.946Z" fill="url(#paint0_linear_480_7385)"/>
        <path d="M-274.968 743.541C-275.874 777.334 -257.675 824.123 -220.212 815.675C-191.895 809.29 -217.661 777.154 -182.84 758.981C-148.019 740.807 -102.59 746.269 -80.8614 776.192C-64.8608 798.226 -93.2195 819.254 -80.8614 843.01C-52.4556 897.615 88.4445 885.594 93.8342 825.799C97.4069 786.164 42.2306 780.401 25.1728 743.541C4.44717 698.757 46.936 658.618 13.2946 620.281C-12.1466 591.289 -41.2008 564.159 -80.8614 575.735C-132.369 590.77 -31.6103 677.234 -80.8614 697.224C-103.743 706.511 -120.512 700.469 -145.467 697.224C-175.972 693.257 -190.289 668.428 -220.212 674.951C-256.481 682.857 -274.092 710.893 -274.968 743.541Z" fill="url(#paint1_linear_480_7385)" fill-opacity="0.6"/>
        <path d="M-274.968 743.541C-275.874 777.334 -257.675 824.123 -220.212 815.675C-191.895 809.29 -217.661 777.154 -182.84 758.981C-148.019 740.807 -102.59 746.269 -80.8615 776.192C-64.8608 798.226 -93.2195 819.254 -80.8615 843.01C-52.4556 897.615 88.4444 885.594 93.8342 825.799C97.4069 786.164 42.2306 780.401 25.1727 743.541C4.44717 698.757 46.9359 658.618 13.2946 620.281C-12.1466 591.289 -41.2008 564.159 -80.8615 575.735C-132.369 590.77 -31.6103 677.234 -80.8615 697.224C-103.743 706.511 -120.512 700.469 -145.467 697.224C-175.972 693.257 -190.289 668.428 -220.212 674.951C-256.481 682.857 -274.092 710.893 -274.968 743.541Z" fill="url(#paint2_linear_480_7385)" fill-opacity="0.6"/>
    </g>
    <defs>
        <linearGradient id="paint0_linear_480_7385" x1="-11" y1="-12" x2="55.2941" y2="205.824" gradientUnits="userSpaceOnUse">
            <stop stop-color="#9745FF"/>
            <stop offset="0.9999" stop-color="#024272"/>
            <stop offset="1" stop-color="#4D0099"/>
        </linearGradient>
        <linearGradient id="paint1_linear_480_7385" x1="-275" y1="573" x2="24.5491" y2="935.405" gradientUnits="userSpaceOnUse">
            <stop stop-color="#FF6FD8"/>
            <stop offset="1" stop-color="#3813C2"/>
        </linearGradient>
        <linearGradient id="paint2_linear_480_7385" x1="-275" y1="573" x2="24.5491" y2="935.405" gradientUnits="userSpaceOnUse">
            <stop stop-color="#9745FF"/>
            <stop offset="1" stop-color="#004271"/>
        </linearGradient>
        <clipPath id="clip0_480_7385">
            <rect width="380" height="828" fill="white"/>
        </clipPath>
    </defs>
</svg>