<?xml version="1.0" encoding="UTF-8"?>
<svg version="1.1" xmlns="http://www.w3.org/2000/svg" width="256" height="256">
<path d="M0 0 C0.90340118 -0.01022186 1.80680237 -0.02044373 2.73757935 -0.03097534 C5.70830171 -0.05865542 8.6780902 -0.05686266 11.64892578 -0.05224609 C13.72486716 -0.06002646 15.80080537 -0.06869712 17.8767395 -0.07821655 C22.22261893 -0.09311701 26.56817334 -0.09257634 30.9140625 -0.08203125 C36.46806252 -0.07044729 42.02072739 -0.10429915 47.57450676 -0.1507206 C51.86068425 -0.18026549 56.14654281 -0.18192929 60.43280411 -0.17570114 C62.47963225 -0.17672415 64.52647904 -0.18713553 66.57320786 -0.20732498 C85.7955184 -0.37367282 85.7955184 -0.37367282 92.10501099 4.57876587 C96.6675223 10.14840228 98.31800055 14.41023077 98.17333984 21.59594727 C98.17382198 22.37985368 98.17430412 23.16376009 98.17480087 23.97142124 C98.1718368 26.48614423 98.1414791 28.99965191 98.10986328 31.51416016 C98.1039754 33.07571849 98.09989884 34.63728472 98.09765625 36.19885254 C98.07676282 41.96162827 98.02091755 47.72423453 97.96923828 53.48681641 C97.88673828 66.37744141 97.80423828 79.26806641 97.71923828 92.54931641 C126.75923828 92.21931641 155.79923828 91.88931641 185.71923828 91.54931641 C189.34923828 78.34931641 192.97923828 65.14931641 196.71923828 51.54931641 C197.37923828 50.55931641 198.03923828 49.56931641 198.71923828 48.54931641 C200.58276367 48.19287109 200.58276367 48.19287109 202.81689453 48.22119141 C203.61804688 48.22634766 204.41919922 48.23150391 205.24462891 48.23681641 C206.50049805 48.26775391 206.50049805 48.26775391 207.78173828 48.29931641 C208.62285156 48.30447266 209.46396484 48.30962891 210.33056641 48.31494141 C216.56524593 48.39532406 216.56524593 48.39532406 217.71923828 49.54931641 C217.84423828 52.54931641 217.84423828 52.54931641 217.71923828 55.54931641 C215.9796717 57.28888299 213.52557608 56.92122026 211.15673828 57.11181641 C210.14482422 57.19560547 209.13291016 57.27939453 208.09033203 57.36572266 C207.30787109 57.42630859 206.52541016 57.48689453 205.71923828 57.54931641 C199.71533101 78.08211836 194.21939377 98.61850132 190.10205078 119.61962891 C189.9236541 120.52719688 189.74525742 121.43476486 189.56145477 122.3698349 C188.11576879 129.7515192 186.7054383 137.13985844 185.30194092 144.52966309 C184.23534783 150.14121717 183.15425854 155.7495657 182.05239487 161.35430527 C181.55214168 163.92980601 181.07341452 166.50868816 180.5954895 169.08840942 C180.28906661 170.65649023 179.98158004 172.22436368 179.67285156 173.79199219 C179.54914688 174.49304077 179.4254422 175.19408936 179.29798889 175.91638184 C177.99802963 182.2914817 175.11473034 185.9523217 169.71923828 189.54931641 C168.9392233 191.65664886 168.9392233 191.65664886 168.55126953 194.11962891 C168.38046875 195.01552734 168.20966797 195.91142578 168.03369141 196.83447266 C167.86804688 197.77162109 167.70240234 198.70876953 167.53173828 199.67431641 C167.26586914 201.09164062 167.26586914 201.09164062 166.99462891 202.53759766 C166.55821644 204.87299412 166.13361722 207.20992726 165.71923828 209.54931641 C166.66798828 210.29181641 167.61673828 211.03431641 168.59423828 211.79931641 C172.07210803 214.72400511 173.50528601 216.76306373 174.05517578 221.35400391 C174.18864492 231.84467784 174.18864492 231.84467784 169.71923828 236.54931641 C165.89993656 240.17765304 162.83644822 240.85932099 157.71923828 241.04931641 C152.60202834 240.85932099 149.53854 240.17765304 145.71923828 236.54931641 C141.94227107 231.9771982 141.71923828 230.79533059 141.71923828 224.54931641 C116.63923828 224.54931641 91.55923828 224.54931641 65.71923828 224.54931641 C65.71923828 226.52931641 65.71923828 228.50931641 65.71923828 230.54931641 C63.23855398 235.31986313 60.60945081 238.27886059 55.71923828 240.54931641 C50.11946708 241.30313176 45.38423837 241.32235216 40.21923828 238.92431641 C35.40486278 234.35065968 33.46767592 231.24057021 33.21923828 224.54931641 C33.46767592 217.8580626 35.40486278 214.74797313 40.21923828 210.17431641 C45.3779528 207.77919895 50.12572573 207.78308181 55.71923828 208.54931641 C60.03334946 210.16917424 61.63708091 212.38500166 63.71923828 216.54931641 C90.11923828 216.54931641 116.51923828 216.54931641 143.71923828 216.54931641 C144.37923828 215.22931641 145.03923828 213.90931641 145.71923828 212.54931641 C149.42566117 209.64863763 150.93684386 208.54931641 155.71923828 208.54931641 C157.03923828 201.94931641 158.35923828 195.34931641 159.71923828 188.54931641 C151.59080087 188.52183079 143.4640088 188.52393247 135.33575916 188.57778263 C131.56120793 188.60161357 127.787539 188.61259628 124.01293945 188.59399414 C120.368398 188.57650938 116.72543973 188.59306475 113.08109093 188.6329937 C111.69249895 188.64227099 110.30376953 188.6393869 108.9152317 188.62401009 C101.4756253 188.20701298 101.4756253 188.20701298 94.97299194 191.02706909 C93.72816886 192.792459 93.72816886 192.792459 92.99491882 194.65916443 C90.92619844 197.72434869 88.08742189 199.24451384 84.71923828 200.54931641 C81.61547804 201.09506513 78.58448868 201.11719736 75.43847656 201.09863281 C74.53507538 201.10885468 73.63167419 201.11907654 72.70089722 201.12960815 C69.73017485 201.15728824 66.76038636 201.15549548 63.78955078 201.15087891 C61.7136094 201.15865927 59.63767119 201.16732994 57.56173706 201.17684937 C53.21585764 201.19174983 48.87030322 201.19120915 44.52441406 201.18066406 C38.97041405 201.1690801 33.41774917 201.20293196 27.8639698 201.24935341 C23.57779231 201.27889831 19.29193375 201.2805621 15.00567245 201.27433395 C12.95884432 201.27535697 10.91199753 201.28576834 8.86526871 201.30595779 C-10.35704184 201.47230564 -10.35704184 201.47230564 -16.66653442 196.51986694 C-21.05789641 191.15915923 -22.77960471 187.11007168 -22.80215454 180.16238403 C-22.80980564 179.45221504 -22.81745673 178.74204605 -22.82533967 178.01035678 C-22.8458561 175.64819843 -22.83804427 173.2870255 -22.83007812 170.92480469 C-22.83877921 169.22410184 -22.8491478 167.52340682 -22.86105347 165.82272339 C-22.8877838 161.21515381 -22.88899645 156.60791284 -22.88392687 152.00028086 C-22.88178393 148.14849243 -22.8915632 144.29677001 -22.90113771 140.44499576 C-22.92331111 131.35488162 -22.92421258 122.26493278 -22.91210938 113.17480469 C-22.90003099 103.80937334 -22.92465192 94.44454303 -22.96724951 85.07921422 C-23.0025218 77.02715552 -23.01447792 68.97528779 -23.00797403 60.92315471 C-23.00435416 56.11894371 -23.0095613 51.31516144 -23.03740311 46.51102066 C-23.06261703 41.99139208 -23.05862 37.47269783 -23.03258133 32.95308304 C-23.02786277 31.2991453 -23.03327299 29.64514122 -23.04982758 27.9912796 C-23.19318067 12.5504674 -23.19318067 12.5504674 -18.01911163 6.22314835 C-12.54824783 0.95533287 -7.40262947 -0.04368276 0 0 Z M97.71923828 100.54931641 C97.71923828 107.14931641 97.71923828 113.74931641 97.71923828 120.54931641 C101.67923828 120.54931641 105.63923828 120.54931641 109.71923828 120.54931641 C109.71923828 113.94931641 109.71923828 107.34931641 109.71923828 100.54931641 C105.75923828 100.54931641 101.79923828 100.54931641 97.71923828 100.54931641 Z M117.71923828 100.54931641 C117.71923828 107.14931641 117.71923828 113.74931641 117.71923828 120.54931641 C125.63923828 120.54931641 133.55923828 120.54931641 141.71923828 120.54931641 C141.71923828 113.94931641 141.71923828 107.34931641 141.71923828 100.54931641 C133.79923828 100.54931641 125.87923828 100.54931641 117.71923828 100.54931641 Z M149.71923828 100.54931641 C149.71923828 107.14931641 149.71923828 113.74931641 149.71923828 120.54931641 C159.94923828 120.54931641 170.17923828 120.54931641 180.71923828 120.54931641 C183.88266839 107.2816756 183.88266839 107.2816756 183.71923828 100.54931641 C172.49923828 100.54931641 161.27923828 100.54931641 149.71923828 100.54931641 Z M97.71923828 128.54931641 C97.71923828 135.14931641 97.71923828 141.74931641 97.71923828 148.54931641 C101.67923828 148.54931641 105.63923828 148.54931641 109.71923828 148.54931641 C109.71923828 141.94931641 109.71923828 135.34931641 109.71923828 128.54931641 C105.75923828 128.54931641 101.79923828 128.54931641 97.71923828 128.54931641 Z M117.71923828 128.54931641 C117.71923828 135.14931641 117.71923828 141.74931641 117.71923828 148.54931641 C125.63923828 148.54931641 133.55923828 148.54931641 141.71923828 148.54931641 C141.71923828 141.94931641 141.71923828 135.34931641 141.71923828 128.54931641 C133.79923828 128.54931641 125.87923828 128.54931641 117.71923828 128.54931641 Z M149.71923828 128.54931641 C149.71923828 135.14931641 149.71923828 141.74931641 149.71923828 148.54931641 C157.96923828 148.54931641 166.21923828 148.54931641 174.71923828 148.54931641 C176.03923828 141.94931641 177.35923828 135.34931641 178.71923828 128.54931641 C169.14923828 128.54931641 159.57923828 128.54931641 149.71923828 128.54931641 Z M97.71923828 156.54931641 C97.71923828 164.46931641 97.71923828 172.38931641 97.71923828 180.54931641 C101.67923828 180.54931641 105.63923828 180.54931641 109.71923828 180.54931641 C109.71923828 172.62931641 109.71923828 164.70931641 109.71923828 156.54931641 C105.75923828 156.54931641 101.79923828 156.54931641 97.71923828 156.54931641 Z M117.71923828 156.54931641 C117.71923828 164.46931641 117.71923828 172.38931641 117.71923828 180.54931641 C125.63923828 180.54931641 133.55923828 180.54931641 141.71923828 180.54931641 C141.71923828 172.62931641 141.71923828 164.70931641 141.71923828 156.54931641 C133.79923828 156.54931641 125.87923828 156.54931641 117.71923828 156.54931641 Z M149.71923828 156.54931641 C149.71923828 164.46931641 149.71923828 172.38931641 149.71923828 180.54931641 C152.27673828 180.63181641 154.83423828 180.71431641 157.46923828 180.79931641 C158.26813477 180.83573242 159.06703125 180.87214844 159.89013672 180.90966797 C163.16433075 180.96080148 165.33433655 180.79175451 168.12548828 179.03369141 C170.26002816 175.70632042 170.87799773 172.38890208 171.46923828 168.54931641 C171.59427734 167.83775391 171.71931641 167.12619141 171.84814453 166.39306641 C172.41590953 163.04886814 172.71923828 159.95065837 172.71923828 156.54931641 C165.12923828 156.54931641 157.53923828 156.54931641 149.71923828 156.54931641 Z M44.34423828 219.17431641 C42.23217322 222.26118072 42.10728683 223.87760771 42.71923828 227.54931641 C44.21923828 230.04931641 44.21923828 230.04931641 46.71923828 231.54931641 C50.39094698 232.16126786 52.00737397 232.03638146 55.09423828 229.92431641 C57.20630334 226.83745209 57.33118973 225.2210251 56.71923828 221.54931641 C55.21923828 219.04931641 55.21923828 219.04931641 52.71923828 217.54931641 C49.04752958 216.93736496 47.4311026 217.06225135 44.34423828 219.17431641 Z M152.34423828 219.17431641 C150.23217322 222.26118072 150.10728683 223.87760771 150.71923828 227.54931641 C152.21923828 230.04931641 152.21923828 230.04931641 154.71923828 231.54931641 C158.39094698 232.16126786 160.00737397 232.03638146 163.09423828 229.92431641 C165.20630334 226.83745209 165.33118973 225.2210251 164.71923828 221.54931641 C163.21923828 219.04931641 163.21923828 219.04931641 160.71923828 217.54931641 C157.04752958 216.93736496 155.4311026 217.06225135 152.34423828 219.17431641 Z " fill="#8C00F6" transform="translate(30.28076171875,7.45068359375)"/>
<path d="M0 0 C0.90340118 -0.01022186 1.80680237 -0.02044373 2.73757935 -0.03097534 C5.70830171 -0.05865542 8.6780902 -0.05686266 11.64892578 -0.05224609 C13.72486716 -0.06002646 15.80080537 -0.06869712 17.8767395 -0.07821655 C22.22261893 -0.09311701 26.56817334 -0.09257634 30.9140625 -0.08203125 C36.46806252 -0.07044729 42.02072739 -0.10429915 47.57450676 -0.1507206 C51.86068425 -0.18026549 56.14654281 -0.18192929 60.43280411 -0.17570114 C62.47963225 -0.17672415 64.52647904 -0.18713553 66.57320786 -0.20732498 C85.7955184 -0.37367282 85.7955184 -0.37367282 92.10501099 4.57876587 C96.6675223 10.14840228 98.31800055 14.41023077 98.17333984 21.59594727 C98.17382198 22.37985368 98.17430412 23.16376009 98.17480087 23.97142124 C98.1718368 26.48614423 98.1414791 28.99965191 98.10986328 31.51416016 C98.1039754 33.07571849 98.09989884 34.63728472 98.09765625 36.19885254 C98.07676282 41.96162827 98.02091755 47.72423453 97.96923828 53.48681641 C97.88673828 66.37744141 97.80423828 79.26806641 97.71923828 92.54931641 C126.75923828 92.21931641 155.79923828 91.88931641 185.71923828 91.54931641 C189.34923828 78.34931641 192.97923828 65.14931641 196.71923828 51.54931641 C197.37923828 50.55931641 198.03923828 49.56931641 198.71923828 48.54931641 C200.58276367 48.19287109 200.58276367 48.19287109 202.81689453 48.22119141 C203.61804688 48.22634766 204.41919922 48.23150391 205.24462891 48.23681641 C206.50049805 48.26775391 206.50049805 48.26775391 207.78173828 48.29931641 C208.62285156 48.30447266 209.46396484 48.30962891 210.33056641 48.31494141 C216.56524593 48.39532406 216.56524593 48.39532406 217.71923828 49.54931641 C217.84423828 52.54931641 217.84423828 52.54931641 217.71923828 55.54931641 C215.9796717 57.28888299 213.52557608 56.92122026 211.15673828 57.11181641 C210.14482422 57.19560547 209.13291016 57.27939453 208.09033203 57.36572266 C207.30787109 57.42630859 206.52541016 57.48689453 205.71923828 57.54931641 C199.71533101 78.08211836 194.21939377 98.61850132 190.10205078 119.61962891 C189.9236541 120.52719688 189.74525742 121.43476486 189.56145477 122.3698349 C188.11576879 129.7515192 186.7054383 137.13985844 185.30194092 144.52966309 C184.23534783 150.14121717 183.15425854 155.7495657 182.05239487 161.35430527 C181.55214168 163.92980601 181.07341452 166.50868816 180.5954895 169.08840942 C180.28906661 170.65649023 179.98158004 172.22436368 179.67285156 173.79199219 C179.54914688 174.49304077 179.4254422 175.19408936 179.29798889 175.91638184 C177.99802963 182.2914817 175.11473034 185.9523217 169.71923828 189.54931641 C168.9392233 191.65664886 168.9392233 191.65664886 168.55126953 194.11962891 C168.38046875 195.01552734 168.20966797 195.91142578 168.03369141 196.83447266 C167.86804688 197.77162109 167.70240234 198.70876953 167.53173828 199.67431641 C167.26586914 201.09164062 167.26586914 201.09164062 166.99462891 202.53759766 C166.55821644 204.87299412 166.13361722 207.20992726 165.71923828 209.54931641 C166.66798828 210.29181641 167.61673828 211.03431641 168.59423828 211.79931641 C172.07210803 214.72400511 173.50528601 216.76306373 174.05517578 221.35400391 C174.18864492 231.84467784 174.18864492 231.84467784 169.71923828 236.54931641 C165.89993656 240.17765304 162.83644822 240.85932099 157.71923828 241.04931641 C152.60202834 240.85932099 149.53854 240.17765304 145.71923828 236.54931641 C141.94227107 231.9771982 141.71923828 230.79533059 141.71923828 224.54931641 C116.63923828 224.54931641 91.55923828 224.54931641 65.71923828 224.54931641 C65.71923828 226.52931641 65.71923828 228.50931641 65.71923828 230.54931641 C63.23855398 235.31986313 60.60945081 238.27886059 55.71923828 240.54931641 C50.11946708 241.30313176 45.38423837 241.32235216 40.21923828 238.92431641 C35.40486278 234.35065968 33.46767592 231.24057021 33.21923828 224.54931641 C33.46767592 217.8580626 35.40486278 214.74797313 40.21923828 210.17431641 C45.3779528 207.77919895 50.12572573 207.78308181 55.71923828 208.54931641 C60.03334946 210.16917424 61.63708091 212.38500166 63.71923828 216.54931641 C90.11923828 216.54931641 116.51923828 216.54931641 143.71923828 216.54931641 C144.37923828 215.22931641 145.03923828 213.90931641 145.71923828 212.54931641 C149.42566117 209.64863763 150.93684386 208.54931641 155.71923828 208.54931641 C157.03923828 201.94931641 158.35923828 195.34931641 159.71923828 188.54931641 C151.59080087 188.52183079 143.4640088 188.52393247 135.33575916 188.57778263 C131.56120793 188.60161357 127.787539 188.61259628 124.01293945 188.59399414 C120.368398 188.57650938 116.72543973 188.59306475 113.08109093 188.6329937 C111.69249895 188.64227099 110.30376953 188.6393869 108.9152317 188.62401009 C101.4756253 188.20701298 101.4756253 188.20701298 94.97299194 191.02706909 C93.72816886 192.792459 93.72816886 192.792459 92.99491882 194.65916443 C90.92619844 197.72434869 88.08742189 199.24451384 84.71923828 200.54931641 C81.61547804 201.09506513 78.58448868 201.11719736 75.43847656 201.09863281 C74.53507538 201.10885468 73.63167419 201.11907654 72.70089722 201.12960815 C69.73017485 201.15728824 66.76038636 201.15549548 63.78955078 201.15087891 C61.7136094 201.15865927 59.63767119 201.16732994 57.56173706 201.17684937 C53.21585764 201.19174983 48.87030322 201.19120915 44.52441406 201.18066406 C38.97041405 201.1690801 33.41774917 201.20293196 27.8639698 201.24935341 C23.57779231 201.27889831 19.29193375 201.2805621 15.00567245 201.27433395 C12.95884432 201.27535697 10.91199753 201.28576834 8.86526871 201.30595779 C-10.35704184 201.47230564 -10.35704184 201.47230564 -16.66653442 196.51986694 C-21.05789641 191.15915923 -22.77960471 187.11007168 -22.80215454 180.16238403 C-22.80980564 179.45221504 -22.81745673 178.74204605 -22.82533967 178.01035678 C-22.8458561 175.64819843 -22.83804427 173.2870255 -22.83007812 170.92480469 C-22.83877921 169.22410184 -22.8491478 167.52340682 -22.86105347 165.82272339 C-22.8877838 161.21515381 -22.88899645 156.60791284 -22.88392687 152.00028086 C-22.88178393 148.14849243 -22.8915632 144.29677001 -22.90113771 140.44499576 C-22.92331111 131.35488162 -22.92421258 122.26493278 -22.91210938 113.17480469 C-22.90003099 103.80937334 -22.92465192 94.44454303 -22.96724951 85.07921422 C-23.0025218 77.02715552 -23.01447792 68.97528779 -23.00797403 60.92315471 C-23.00435416 56.11894371 -23.0095613 51.31516144 -23.03740311 46.51102066 C-23.06261703 41.99139208 -23.05862 37.47269783 -23.03258133 32.95308304 C-23.02786277 31.2991453 -23.03327299 29.64514122 -23.04982758 27.9912796 C-23.19318067 12.5504674 -23.19318067 12.5504674 -18.01911163 6.22314835 C-12.54824783 0.95533287 -7.40262947 -0.04368276 0 0 Z M-13.28076172 14.54931641 C-14.7169781 17.42174916 -14.41339332 19.88456086 -14.42120361 23.09614563 C-14.4256603 24.11634703 -14.4256603 24.11634703 -14.43020701 25.15715855 C-14.43891191 27.44715121 -14.44040377 29.7370917 -14.44189453 32.02709961 C-14.44652146 33.66458244 -14.45154595 35.30206419 -14.4569397 36.93954468 C-14.47007825 41.39623099 -14.47651155 45.85290222 -14.48095036 50.30960488 C-14.4838789 53.09266314 -14.4879833 55.87571725 -14.49245453 58.65877342 C-14.50613364 67.36246704 -14.51579812 76.06615122 -14.51965642 84.76985484 C-14.52413756 94.82402414 -14.54168628 104.87805751 -14.57065701 114.93218547 C-14.59226071 122.69869686 -14.60236001 130.46516997 -14.60369754 138.23171109 C-14.60474656 142.872553 -14.61067493 147.5132672 -14.62851715 152.15407753 C-14.64497505 156.51989427 -14.64716448 160.88548702 -14.63837814 165.2513237 C-14.63760653 166.85372581 -14.64196689 168.45613984 -14.6518364 170.05851173 C-14.66452217 172.24645426 -14.65869813 174.43359943 -14.64825439 176.62153625 C-14.64972095 177.84584508 -14.65118752 179.0701539 -14.65269852 180.331563 C-14.11723629 184.96403123 -12.27274396 187.50064887 -9.1229248 190.83045959 C-5.35884418 193.10686507 -2.07596178 193.10343277 2.19384766 193.05102539 C3.03510696 193.05642838 3.87636627 193.06183136 4.74311829 193.06739807 C7.51676901 193.07987897 10.28938044 193.06339883 13.06298828 193.04541016 C14.99442601 193.04556516 16.92586405 193.04705435 18.8572998 193.04981995 C22.90240249 193.05120365 26.94715048 193.03865053 30.9921875 193.01586914 C36.17412954 192.98748469 41.35548231 192.99022226 46.53746796 193.00295925 C50.52493309 193.00991822 54.51226231 193.00212463 58.49971008 192.98970222 C60.41025776 192.98518986 62.32082003 192.98484905 64.23136902 192.98876762 C66.90275926 192.99168197 69.57334091 192.97516233 72.24462891 192.95336914 C73.42615288 192.96012161 73.42615288 192.96012161 74.63154602 192.9670105 C80.19705215 192.89167104 83.30966107 191.6146683 87.46923828 188.04931641 C90.25164843 184.71042422 89.85656671 181.03170821 89.87986755 176.89569092 C89.88749928 175.87632458 89.88749928 175.87632458 89.89528519 174.83636498 C89.91100895 172.55416071 89.91953449 170.2719881 89.92797852 167.98974609 C89.93751699 166.35535989 89.94740815 164.72097572 89.95762634 163.08659363 C89.98901032 157.71481726 90.00927708 152.34302541 90.02783203 146.97119141 C90.03112935 146.05724011 90.03442667 145.14328882 90.03782392 144.20164204 C90.06860299 135.58221519 90.09531015 126.96278486 90.1122427 118.34331894 C90.13415382 107.31891769 90.17613687 96.29500318 90.24568027 85.27079654 C90.29292209 77.51867652 90.31717643 69.76668783 90.32443959 62.01442838 C90.3293953 57.38453385 90.34446837 52.75518797 90.38418388 48.12545013 C90.42106742 43.76846556 90.42945461 39.41234261 90.41617775 35.05523109 C90.41623167 33.45847691 90.42651656 31.86168438 90.44792938 30.26507378 C90.85193305 20.587525 90.85193305 20.587525 86.86317444 12.10699463 C83.78096869 9.16083401 80.90566984 8.42009512 76.70751953 8.45166016 C75.95019531 8.45488281 75.19287109 8.45810547 74.41259766 8.46142578 C73.62691406 8.46980469 72.84123047 8.47818359 72.03173828 8.48681641 C70.83581055 8.49358398 70.83581055 8.49358398 69.61572266 8.50048828 C67.65019571 8.5122579 65.68470743 8.53019292 63.71923828 8.54931641 C61.73923828 12.17931641 59.75923828 15.80931641 57.71923828 19.54931641 C44.51923828 19.54931641 31.31923828 19.54931641 17.71923828 19.54931641 C15.73923828 15.91931641 13.75923828 12.28931641 11.71923828 8.54931641 C-2.36309521 7.09549899 -2.36309521 7.09549899 -13.28076172 14.54931641 Z M97.71923828 100.54931641 C97.71923828 107.14931641 97.71923828 113.74931641 97.71923828 120.54931641 C101.67923828 120.54931641 105.63923828 120.54931641 109.71923828 120.54931641 C109.71923828 113.94931641 109.71923828 107.34931641 109.71923828 100.54931641 C105.75923828 100.54931641 101.79923828 100.54931641 97.71923828 100.54931641 Z M117.71923828 100.54931641 C117.71923828 107.14931641 117.71923828 113.74931641 117.71923828 120.54931641 C125.63923828 120.54931641 133.55923828 120.54931641 141.71923828 120.54931641 C141.71923828 113.94931641 141.71923828 107.34931641 141.71923828 100.54931641 C133.79923828 100.54931641 125.87923828 100.54931641 117.71923828 100.54931641 Z M149.71923828 100.54931641 C149.71923828 107.14931641 149.71923828 113.74931641 149.71923828 120.54931641 C159.94923828 120.54931641 170.17923828 120.54931641 180.71923828 120.54931641 C183.88266839 107.2816756 183.88266839 107.2816756 183.71923828 100.54931641 C172.49923828 100.54931641 161.27923828 100.54931641 149.71923828 100.54931641 Z M97.71923828 128.54931641 C97.71923828 135.14931641 97.71923828 141.74931641 97.71923828 148.54931641 C101.67923828 148.54931641 105.63923828 148.54931641 109.71923828 148.54931641 C109.71923828 141.94931641 109.71923828 135.34931641 109.71923828 128.54931641 C105.75923828 128.54931641 101.79923828 128.54931641 97.71923828 128.54931641 Z M117.71923828 128.54931641 C117.71923828 135.14931641 117.71923828 141.74931641 117.71923828 148.54931641 C125.63923828 148.54931641 133.55923828 148.54931641 141.71923828 148.54931641 C141.71923828 141.94931641 141.71923828 135.34931641 141.71923828 128.54931641 C133.79923828 128.54931641 125.87923828 128.54931641 117.71923828 128.54931641 Z M149.71923828 128.54931641 C149.71923828 135.14931641 149.71923828 141.74931641 149.71923828 148.54931641 C157.96923828 148.54931641 166.21923828 148.54931641 174.71923828 148.54931641 C176.03923828 141.94931641 177.35923828 135.34931641 178.71923828 128.54931641 C169.14923828 128.54931641 159.57923828 128.54931641 149.71923828 128.54931641 Z M97.71923828 156.54931641 C97.71923828 164.46931641 97.71923828 172.38931641 97.71923828 180.54931641 C101.67923828 180.54931641 105.63923828 180.54931641 109.71923828 180.54931641 C109.71923828 172.62931641 109.71923828 164.70931641 109.71923828 156.54931641 C105.75923828 156.54931641 101.79923828 156.54931641 97.71923828 156.54931641 Z M117.71923828 156.54931641 C117.71923828 164.46931641 117.71923828 172.38931641 117.71923828 180.54931641 C125.63923828 180.54931641 133.55923828 180.54931641 141.71923828 180.54931641 C141.71923828 172.62931641 141.71923828 164.70931641 141.71923828 156.54931641 C133.79923828 156.54931641 125.87923828 156.54931641 117.71923828 156.54931641 Z M149.71923828 156.54931641 C149.71923828 164.46931641 149.71923828 172.38931641 149.71923828 180.54931641 C152.27673828 180.63181641 154.83423828 180.71431641 157.46923828 180.79931641 C158.26813477 180.83573242 159.06703125 180.87214844 159.89013672 180.90966797 C163.16433075 180.96080148 165.33433655 180.79175451 168.12548828 179.03369141 C170.26002816 175.70632042 170.87799773 172.38890208 171.46923828 168.54931641 C171.59427734 167.83775391 171.71931641 167.12619141 171.84814453 166.39306641 C172.41590953 163.04886814 172.71923828 159.95065837 172.71923828 156.54931641 C165.12923828 156.54931641 157.53923828 156.54931641 149.71923828 156.54931641 Z M44.34423828 219.17431641 C42.23217322 222.26118072 42.10728683 223.87760771 42.71923828 227.54931641 C44.21923828 230.04931641 44.21923828 230.04931641 46.71923828 231.54931641 C50.39094698 232.16126786 52.00737397 232.03638146 55.09423828 229.92431641 C57.20630334 226.83745209 57.33118973 225.2210251 56.71923828 221.54931641 C55.21923828 219.04931641 55.21923828 219.04931641 52.71923828 217.54931641 C49.04752958 216.93736496 47.4311026 217.06225135 44.34423828 219.17431641 Z M152.34423828 219.17431641 C150.23217322 222.26118072 150.10728683 223.87760771 150.71923828 227.54931641 C152.21923828 230.04931641 152.21923828 230.04931641 154.71923828 231.54931641 C158.39094698 232.16126786 160.00737397 232.03638146 163.09423828 229.92431641 C165.20630334 226.83745209 165.33118973 225.2210251 164.71923828 221.54931641 C163.21923828 219.04931641 163.21923828 219.04931641 160.71923828 217.54931641 C157.04752958 216.93736496 155.4311026 217.06225135 152.34423828 219.17431641 Z " fill="#FEFEFE" transform="translate(30.28076171875,7.45068359375)"/>
<path d="M0 0 C4.55555556 0.55555556 4.55555556 0.55555556 6 2 C6.04080783 3.99958364 6.04254356 6.00045254 6 8 C7.32 8 8.64 8 10 8 C9.95875 7.05125 9.9175 6.1025 9.875 5.125 C10 2 10 2 12 0 C16.55555556 0.55555556 16.55555556 0.55555556 18 2 C18.12514928 3.97619447 18.1757276 5.95738173 18.1875 7.9375 C18.20167969 9.01902344 18.21585938 10.10054687 18.23046875 11.21484375 C18 14 18 14 16 16 C13.6171875 16.1953125 13.6171875 16.1953125 10.875 16.125 C9.96492188 16.10695313 9.05484375 16.08890625 8.1171875 16.0703125 C7.41851562 16.04710938 6.71984375 16.02390625 6 16 C6 18.64 6 21.28 6 24 C7.04800781 23.96519531 7.04800781 23.96519531 8.1171875 23.9296875 C9.02726562 23.91164063 9.93734375 23.89359375 10.875 23.875 C12.23238281 23.84019531 12.23238281 23.84019531 13.6171875 23.8046875 C16 24 16 24 18 26 C18.25878906 28.03125 18.25878906 28.03125 18.265625 30.5 C18.26949219 31.8303125 18.26949219 31.8303125 18.2734375 33.1875 C18.26570313 34.115625 18.25796875 35.04375 18.25 36 C18.25773437 36.928125 18.26546875 37.85625 18.2734375 38.8125 C18.27085938 39.699375 18.26828125 40.58625 18.265625 41.5 C18.26336914 42.3146875 18.26111328 43.129375 18.25878906 43.96875 C18 46 18 46 16 48 C13.6015625 48.25878906 13.6015625 48.25878906 10.625 48.265625 C9.55765625 48.26820313 8.4903125 48.27078125 7.390625 48.2734375 C5.71226563 48.26183594 5.71226563 48.26183594 4 48.25 C2.88109375 48.25773437 1.7621875 48.26546875 0.609375 48.2734375 C-0.45796875 48.27085937 -1.5253125 48.26828125 -2.625 48.265625 C-3.60726562 48.26336914 -4.58953125 48.26111328 -5.6015625 48.25878906 C-8 48 -8 48 -10 46 C-10.265625 44.125 -10.265625 44.125 -10.25 42 C-10.25515625 41.29875 -10.2603125 40.5975 -10.265625 39.875 C-10 38 -10 38 -8 36 C-5.375 36.375 -5.375 36.375 -3 37 C-2.67 37.99 -2.34 38.98 -2 40 C1.96 40 5.92 40 10 40 C10 37.36 10 34.72 10 32 C9.30132812 32.02320313 8.60265625 32.04640625 7.8828125 32.0703125 C6.97273438 32.08835938 6.06265625 32.10640625 5.125 32.125 C3.76761719 32.15980469 3.76761719 32.15980469 2.3828125 32.1953125 C0 32 0 32 -2 30 C-2.25878906 27.234375 -2.25878906 27.234375 -2.265625 23.75 C-2.26820312 22.5021875 -2.27078125 21.254375 -2.2734375 19.96875 C-2.26570313 18.6590625 -2.25796875 17.349375 -2.25 16 C-2.25773437 14.6903125 -2.26546875 13.380625 -2.2734375 12.03125 C-2.26957031 10.15953125 -2.26957031 10.15953125 -2.265625 8.25 C-2.26336914 7.10015625 -2.26111328 5.9503125 -2.25878906 4.765625 C-2 2 -2 2 0 0 Z " fill="#FDFCFE" transform="translate(90,96)"/>
<path d="M0 0 C0.886875 -0.00257812 1.77375 -0.00515625 2.6875 -0.0078125 C4.0796875 0.00378906 4.0796875 0.00378906 5.5 0.015625 C6.428125 0.00789063 7.35625 0.00015625 8.3125 -0.0078125 C9.6428125 -0.00394531 9.6428125 -0.00394531 11 0 C11.8146875 0.00225586 12.629375 0.00451172 13.46875 0.00683594 C15.5 0.265625 15.5 0.265625 17.5 2.265625 C17.75878906 4.296875 17.75878906 4.296875 17.765625 6.765625 C17.76949219 8.0959375 17.76949219 8.0959375 17.7734375 9.453125 C17.76570313 10.38125 17.75796875 11.309375 17.75 12.265625 C17.75773437 13.19375 17.76546875 14.121875 17.7734375 15.078125 C17.77085938 15.965 17.76828125 16.851875 17.765625 17.765625 C17.76336914 18.5803125 17.76111328 19.395 17.75878906 20.234375 C17.5 22.265625 17.5 22.265625 15.5 24.265625 C13.46875 24.52441406 13.46875 24.52441406 11 24.53125 C10.113125 24.53382813 9.22625 24.53640625 8.3125 24.5390625 C7.384375 24.53132813 6.45625 24.52359375 5.5 24.515625 C4.1078125 24.52722656 4.1078125 24.52722656 2.6875 24.5390625 C1.3571875 24.53519531 1.3571875 24.53519531 0 24.53125 C-0.8146875 24.52899414 -1.629375 24.52673828 -2.46875 24.52441406 C-4.5 24.265625 -4.5 24.265625 -6.5 22.265625 C-6.75878906 20.234375 -6.75878906 20.234375 -6.765625 17.765625 C-6.76820312 16.87875 -6.77078125 15.991875 -6.7734375 15.078125 C-6.76183594 13.6859375 -6.76183594 13.6859375 -6.75 12.265625 C-6.75773437 11.3375 -6.76546875 10.409375 -6.7734375 9.453125 C-6.77085938 8.56625 -6.76828125 7.679375 -6.765625 6.765625 C-6.76336914 5.9509375 -6.76111328 5.13625 -6.75878906 4.296875 C-6.21708282 0.04499205 -3.6638033 0.01014502 0 0 Z " fill="#FEFDFE" transform="translate(34.5,119.734375)"/>
<path d="M0 0 C0.886875 -0.00257812 1.77375 -0.00515625 2.6875 -0.0078125 C4.0796875 0.00378906 4.0796875 0.00378906 5.5 0.015625 C6.428125 0.00789063 7.35625 0.00015625 8.3125 -0.0078125 C9.6428125 -0.00394531 9.6428125 -0.00394531 11 0 C11.8146875 0.00225586 12.629375 0.00451172 13.46875 0.00683594 C15.5 0.265625 15.5 0.265625 17.5 2.265625 C17.75878906 4.296875 17.75878906 4.296875 17.765625 6.765625 C17.76949219 8.0959375 17.76949219 8.0959375 17.7734375 9.453125 C17.76570313 10.38125 17.75796875 11.309375 17.75 12.265625 C17.75773437 13.19375 17.76546875 14.121875 17.7734375 15.078125 C17.77085938 15.965 17.76828125 16.851875 17.765625 17.765625 C17.76336914 18.5803125 17.76111328 19.395 17.75878906 20.234375 C17.5 22.265625 17.5 22.265625 15.5 24.265625 C13.46875 24.52441406 13.46875 24.52441406 11 24.53125 C10.113125 24.53382812 9.22625 24.53640625 8.3125 24.5390625 C7.384375 24.53132813 6.45625 24.52359375 5.5 24.515625 C4.1078125 24.52722656 4.1078125 24.52722656 2.6875 24.5390625 C1.3571875 24.53519531 1.3571875 24.53519531 0 24.53125 C-0.8146875 24.52899414 -1.629375 24.52673828 -2.46875 24.52441406 C-4.5 24.265625 -4.5 24.265625 -6.5 22.265625 C-6.75878906 20.234375 -6.75878906 20.234375 -6.765625 17.765625 C-6.76820312 16.87875 -6.77078125 15.991875 -6.7734375 15.078125 C-6.76183594 13.6859375 -6.76183594 13.6859375 -6.75 12.265625 C-6.75773437 11.3375 -6.76546875 10.409375 -6.7734375 9.453125 C-6.77085938 8.56625 -6.76828125 7.679375 -6.765625 6.765625 C-6.76336914 5.9509375 -6.76111328 5.13625 -6.75878906 4.296875 C-6.21708282 0.04499205 -3.6638033 0.01014502 0 0 Z " fill="#FEFDFE" transform="translate(90.5,63.734375)"/>
<path d="M0 0 C0.886875 -0.00257812 1.77375 -0.00515625 2.6875 -0.0078125 C4.0796875 0.00378906 4.0796875 0.00378906 5.5 0.015625 C6.428125 0.00789063 7.35625 0.00015625 8.3125 -0.0078125 C9.6428125 -0.00394531 9.6428125 -0.00394531 11 0 C11.8146875 0.00225586 12.629375 0.00451172 13.46875 0.00683594 C15.5 0.265625 15.5 0.265625 17.5 2.265625 C17.75878906 4.296875 17.75878906 4.296875 17.765625 6.765625 C17.76949219 8.0959375 17.76949219 8.0959375 17.7734375 9.453125 C17.76570313 10.38125 17.75796875 11.309375 17.75 12.265625 C17.75773437 13.19375 17.76546875 14.121875 17.7734375 15.078125 C17.77085938 15.965 17.76828125 16.851875 17.765625 17.765625 C17.76336914 18.5803125 17.76111328 19.395 17.75878906 20.234375 C17.5 22.265625 17.5 22.265625 15.5 24.265625 C13.46875 24.52441406 13.46875 24.52441406 11 24.53125 C10.113125 24.53382812 9.22625 24.53640625 8.3125 24.5390625 C7.384375 24.53132813 6.45625 24.52359375 5.5 24.515625 C4.1078125 24.52722656 4.1078125 24.52722656 2.6875 24.5390625 C1.3571875 24.53519531 1.3571875 24.53519531 0 24.53125 C-0.8146875 24.52899414 -1.629375 24.52673828 -2.46875 24.52441406 C-4.5 24.265625 -4.5 24.265625 -6.5 22.265625 C-6.75878906 20.234375 -6.75878906 20.234375 -6.765625 17.765625 C-6.76820312 16.87875 -6.77078125 15.991875 -6.7734375 15.078125 C-6.76183594 13.6859375 -6.76183594 13.6859375 -6.75 12.265625 C-6.75773437 11.3375 -6.76546875 10.409375 -6.7734375 9.453125 C-6.77085938 8.56625 -6.76828125 7.679375 -6.765625 6.765625 C-6.76336914 5.9509375 -6.76111328 5.13625 -6.75878906 4.296875 C-6.21708282 0.04499205 -3.6638033 0.01014502 0 0 Z " fill="#FEFDFE" transform="translate(34.5,63.734375)"/>
<path d="M0 0 C4.55555556 0.55555556 4.55555556 0.55555556 6 2 C6.12514928 3.97619447 6.1757276 5.95738173 6.1875 7.9375 C6.20167969 9.01902344 6.21585938 10.10054687 6.23046875 11.21484375 C6 14 6 14 4 16 C0.875 16.125 0.875 16.125 -2 16 C-1.97679688 17.27617188 -1.95359375 18.55234375 -1.9296875 19.8671875 C-1.91093171 21.5364525 -1.89273131 23.2057238 -1.875 24.875 C-1.85824219 25.71675781 -1.84148437 26.55851562 -1.82421875 27.42578125 C-1.81777344 28.23144531 -1.81132813 29.03710938 -1.8046875 29.8671875 C-1.79421387 30.61081543 -1.78374023 31.35444336 -1.77294922 32.12060547 C-2 34 -2 34 -4 36 C-5.875 36.265625 -5.875 36.265625 -8 36.25 C-8.70125 36.25515625 -9.4025 36.2603125 -10.125 36.265625 C-12 36 -12 36 -14 34 C-13.625 31.375 -13.625 31.375 -13 29 C-12.01 28.67 -11.02 28.34 -10 28 C-10.02320313 26.72382813 -10.04640625 25.44765625 -10.0703125 24.1328125 C-10.08906829 22.4635475 -10.10726869 20.7942762 -10.125 19.125 C-10.15013672 17.86236328 -10.15013672 17.86236328 -10.17578125 16.57421875 C-10.18222656 15.76855469 -10.18867187 14.96289062 -10.1953125 14.1328125 C-10.20578613 13.38918457 -10.21625977 12.64555664 -10.22705078 11.87939453 C-10 10 -10 10 -8 8 C-4.875 7.875 -4.875 7.875 -2 8 C-2.04125 7.05125 -2.0825 6.1025 -2.125 5.125 C-2 2 -2 2 0 0 Z " fill="#FDFBFE" transform="translate(74,108)"/>
<path d="M0 0 C1.1127832 -0.01836914 1.1127832 -0.01836914 2.24804688 -0.03710938 C4.18763629 -0.04238478 6.1267371 0.06561098 8.0625 0.1875 C10.0625 2.1875 10.0625 2.1875 10.1875 5.3125 C10.14625 6.26125 10.105 7.21 10.0625 8.1875 C12.7025 8.1875 15.3425 8.1875 18.0625 8.1875 C18.7225 6.8675 19.3825 5.5475 20.0625 4.1875 C24.9375 5.0625 24.9375 5.0625 26.0625 6.1875 C26.33564815 11.92361111 26.33564815 11.92361111 26.0625 14.1875 C23.61263068 16.63736932 22.925422 16.44381311 19.5625 16.453125 C18.675625 16.45570312 17.78875 16.45828125 16.875 16.4609375 C15.946875 16.45320313 15.01875 16.44546875 14.0625 16.4375 C12.6703125 16.44910156 12.6703125 16.44910156 11.25 16.4609375 C9.9196875 16.45707031 9.9196875 16.45707031 8.5625 16.453125 C7.7478125 16.45086914 6.933125 16.44861328 6.09375 16.44628906 C4.0625 16.1875 4.0625 16.1875 2.0625 14.1875 C1.9375 11.0625 1.9375 11.0625 2.0625 8.1875 C1.36382812 8.21070312 0.66515625 8.23390625 -0.0546875 8.2578125 C-0.96476562 8.27585937 -1.87484375 8.29390625 -2.8125 8.3125 C-3.71742187 8.33570312 -4.62234375 8.35890625 -5.5546875 8.3828125 C-7.9375 8.1875 -7.9375 8.1875 -9.9375 6.1875 C-9.07839571 -0.85715515 -6.35769477 0.00549498 0 0 Z " fill="#FDFBFE" transform="translate(37.9375,95.8125)"/>
<path d="M0 0 C4.55555556 0.55555556 4.55555556 0.55555556 6 2 C6.04080783 3.99958364 6.04254356 6.00045254 6 8 C7.423125 7.938125 7.423125 7.938125 8.875 7.875 C12 8 12 8 14 10 C14.1953125 13.2578125 14.1953125 13.2578125 14.125 17.125 C14.10695313 18.40632813 14.08890625 19.68765625 14.0703125 21.0078125 C14.04710938 21.99523437 14.02390625 22.98265625 14 24 C15.32 24.66 16.64 25.32 18 26 C17.125 30.875 17.125 30.875 16 32 C10.26388889 32.27314815 10.26388889 32.27314815 8 32 C6 30 6 30 5.8046875 26.7421875 C5.82789062 25.46601562 5.85109375 24.18984375 5.875 22.875 C5.89304687 21.59367187 5.91109375 20.31234375 5.9296875 18.9921875 C5.95289062 18.00476563 5.97609375 17.01734375 6 16 C5.05125 16.04125 4.1025 16.0825 3.125 16.125 C0 16 0 16 -2 14 C-2.265625 11.25 -2.265625 11.25 -2.25 8 C-2.25515625 6.9275 -2.2603125 5.855 -2.265625 4.75 C-2 2 -2 2 0 0 Z " fill="#FDFAFE" transform="translate(62,68)"/>
<path d="M0 0 C2.64 0 5.28 0 8 0 C8 2.64 8 5.28 8 8 C5.36 8 2.72 8 0 8 C0 5.36 0 2.72 0 0 Z " fill="#8C00F6" transform="translate(36,128)"/>
<path d="M0 0 C2.64 0 5.28 0 8 0 C8 2.64 8 5.28 8 8 C5.36 8 2.72 8 0 8 C0 5.36 0 2.72 0 0 Z " fill="#8C00F6" transform="translate(92,72)"/>
<path d="M0 0 C2.64 0 5.28 0 8 0 C8 2.64 8 5.28 8 8 C5.36 8 2.72 8 0 8 C0 5.36 0 2.72 0 0 Z " fill="#8C00F6" transform="translate(36,72)"/>
</svg>
