<svg width="28" height="28" viewBox="0 0 28 28" fill="none" xmlns="http://www.w3.org/2000/svg">
<g id="Iconly/Bold/Logout">
<g id="Logout">
<path id="Logout_2" fill-rule="evenodd" clip-rule="evenodd" d="M11.5442 13.1016C11.0338 13.1016 10.6302 13.4983 10.6302 13.9999C10.6302 14.4899 11.0338 14.8983 11.5442 14.8983H18.6663V20.4749C18.6663 23.3333 16.3042 25.6666 13.3841 25.6666H7.60336C4.69517 25.6666 2.33301 23.3449 2.33301 20.4866V7.52492C2.33301 4.65492 4.70704 2.33325 7.61523 2.33325H13.4079C16.3042 2.33325 18.6663 4.65492 18.6663 7.51325V13.1016H11.5442ZM22.9015 9.96349L26.3082 13.3585C26.4832 13.5335 26.5765 13.7552 26.5765 14.0002C26.5765 14.2335 26.4832 14.4668 26.3082 14.6302L22.9015 18.0252C22.7265 18.2002 22.4932 18.2935 22.2715 18.2935C22.0382 18.2935 21.8048 18.2002 21.6298 18.0252C21.2798 17.6752 21.2798 17.1035 21.6298 16.7535L23.4965 14.8985H18.6665V13.1018H23.4965L21.6298 11.2468C21.2798 10.8968 21.2798 10.3252 21.6298 9.97515C21.9798 9.61349 22.5515 9.61349 22.9015 9.96349Z" fill="#9745FF"/>
</g>
</g>
</svg>
