<svg width="28" height="28" viewBox="0 0 28 28" fill="none" xmlns="http://www.w3.org/2000/svg">
<g id="Iconly/Bold/Setting">
<g id="Setting">
<path id="Setting_2" fill-rule="evenodd" clip-rule="evenodd" d="M23.8031 15.8435C24.2204 16.0652 24.5423 16.4152 24.7688 16.7652C25.21 17.4885 25.1742 18.3752 24.745 19.1568L23.9104 20.5568C23.4692 21.3035 22.6465 21.7702 21.8 21.7702C21.3827 21.7702 20.9177 21.6535 20.5362 21.4202C20.2262 21.2218 19.8685 21.1518 19.487 21.1518C18.3066 21.1518 17.317 22.1202 17.2813 23.2752C17.2813 24.6168 16.1844 25.6668 14.8132 25.6668H13.1917C11.8087 25.6668 10.7118 24.6168 10.7118 23.2752C10.6879 22.1202 9.69835 21.1518 8.51799 21.1518C8.12453 21.1518 7.76685 21.2218 7.46878 21.4202C7.08725 21.6535 6.61033 21.7702 6.20496 21.7702C5.34651 21.7702 4.52384 21.3035 4.08269 20.5568L3.26002 19.1568C2.81887 18.3985 2.79502 17.4885 3.23617 16.7652C3.42693 16.4152 3.78462 16.0652 4.19 15.8435C4.52384 15.6802 4.73845 15.4118 4.94114 15.0968C5.53728 14.0935 5.17959 12.7752 4.16615 12.1802C2.98579 11.5152 2.60426 10.0335 3.28386 8.8785L4.08269 7.50183C4.77422 6.34683 6.25265 5.9385 7.44493 6.61516C8.48222 7.17516 9.8295 6.80183 10.4376 5.81016C10.6283 5.4835 10.7356 5.1335 10.7118 4.7835C10.6879 4.3285 10.8191 3.89683 11.0456 3.54683C11.4868 2.8235 12.2856 2.35683 13.156 2.3335H14.8371C15.7194 2.3335 16.5182 2.8235 16.9594 3.54683C17.174 3.89683 17.317 4.3285 17.2813 4.7835C17.2574 5.1335 17.3647 5.4835 17.5555 5.81016C18.1636 6.80183 19.5108 7.17516 20.5601 6.61516C21.7404 5.9385 23.2308 6.34683 23.9104 7.50183L24.7092 8.8785C25.4007 10.0335 25.0192 11.5152 23.8269 12.1802C22.8135 12.7752 22.4558 14.0935 23.0638 15.0968C23.2546 15.4118 23.4692 15.6802 23.8031 15.8435ZM10.6284 14.0118C10.6284 15.8435 12.1426 17.3018 14.0145 17.3018C15.8863 17.3018 17.3648 15.8435 17.3648 14.0118C17.3648 12.1802 15.8863 10.7102 14.0145 10.7102C12.1426 10.7102 10.6284 12.1802 10.6284 14.0118Z" fill="#9745FF"/>
</g>
</g>
</svg>
