<?xml version="1.0" encoding="UTF-8"?>
<svg version="1.1" xmlns="http://www.w3.org/2000/svg" width="128" height="128">
<path d="M0 0 C7.92 0 15.84 0 24 0 C24 22.11 24 44.22 24 67 C26.31 67 28.62 67 31 67 C31 69.64 31 72.28 31 75 C-11.24 75 -53.48 75 -97 75 C-97 72.36 -97 69.72 -97 67 C-94.69 67 -92.38 67 -90 67 C-90 59.74 -90 52.48 -90 45 C-82.08 45 -74.16 45 -66 45 C-66 52.26 -66 59.52 -66 67 C-64.02 67 -62.04 67 -60 67 C-60 54.79 -60 42.58 -60 30 C-52.08 30 -44.16 30 -36 30 C-36 42.21 -36 54.42 -36 67 C-34.02 67 -32.04 67 -30 67 C-30 49.84 -30 32.68 -30 15 C-22.08 15 -14.16 15 -6 15 C-6 32.16 -6 49.32 -6 67 C-4.02 67 -2.04 67 0 67 C0 44.89 0 22.78 0 0 Z " fill="#9644FF" transform="translate(97,49)"/>
<path d="M0 0 C7.59 0 15.18 0 23 0 C23 7.59 23 15.18 23 23 C20.36 23 17.72 23 15 23 C14.505 19.535 14.505 19.535 14 16 C13.07719238 16.93851807 13.07719238 16.93851807 12.13574219 17.89599609 C9.84372621 20.22216319 7.54722384 22.54370904 5.24755859 24.86230469 C4.25451955 25.86538097 3.26328553 26.87024767 2.27392578 27.87695312 C0.84882574 29.32640161 -0.58271168 30.76921773 -2.015625 32.2109375 C-2.87446289 33.08024902 -3.73330078 33.94956055 -4.61816406 34.84521484 C-6.73929211 36.76414434 -8.30050958 38.09158549 -11 39 C-13.875 37.84765625 -13.875 37.84765625 -17 36.0625 C-20.77172157 33.66850145 -20.77172157 33.66850145 -25.00135803 33.25668335 C-28.44239003 34.53644052 -30.65323241 37.41845217 -33.12109375 40.0390625 C-34.31534129 41.27123464 -35.51001581 42.50299307 -36.70507812 43.734375 C-38.57835004 45.68224297 -40.4465301 47.63451481 -42.30688477 49.59472656 C-44.10686262 51.48514245 -45.92490516 53.35660514 -47.74609375 55.2265625 C-48.29833115 55.81917877 -48.85056854 56.41179504 -49.41954041 57.02236938 C-51.01733398 58.65087891 -51.01733398 58.65087891 -54 61 C-58.76084716 60.89501569 -62.46081417 58.20474679 -66.5 55.86328125 C-69.82228051 54.71605626 -70.87501805 55.49143761 -74 57 C-75.68591073 58.15361585 -77.33172852 59.36719948 -78.94140625 60.625 C-79.85470703 61.33140625 -80.76800781 62.0378125 -81.70898438 62.765625 C-82.65064453 63.50296875 -83.59230469 64.2403125 -84.5625 65 C-86.43645273 66.46135101 -88.31266741 67.91980723 -90.19140625 69.375 C-91.43192749 70.34566406 -91.43192749 70.34566406 -92.69750977 71.3359375 C-94.7458376 72.816311 -96.7057091 73.9558521 -99 75 C-100.65 73.02 -102.3 71.04 -104 69 C-99.76613005 64.51158877 -95.07699497 60.81340076 -90.1875 57.0625 C-89.41857422 56.46759766 -88.64964844 55.87269531 -87.85742188 55.25976562 C-86.3257386 54.07707347 -84.78916318 52.90068764 -83.24755859 51.73095703 C-81.74960281 50.57730653 -80.27285027 49.39558832 -78.81884766 48.18701172 C-73.68040236 44.01089436 -73.68040236 44.01089436 -70.31640625 43.95703125 C-66.89215111 45.49881223 -63.66074016 47.27406071 -60.40234375 49.13671875 C-58.1156396 50.23420715 -58.1156396 50.23420715 -56.2434082 49.43530273 C-52.98327888 47.34951535 -50.40038465 44.64454846 -47.703125 41.8984375 C-46.81267487 41.00374252 -46.81267487 41.00374252 -45.90423584 40.0909729 C-44.01473373 38.1903019 -42.13231608 36.28278526 -40.25 34.375 C-38.96790935 33.08287532 -37.68536239 31.79120324 -36.40234375 30.5 C-33.26291568 27.33855521 -30.12982199 24.1709539 -27 21 C-26.10796875 21.44472656 -25.2159375 21.88945312 -24.296875 22.34765625 C-22.54117188 23.19650391 -22.54117188 23.19650391 -20.75 24.0625 C-19.58984375 24.63097656 -18.4296875 25.19945313 -17.234375 25.78515625 C-14.23744494 27.14766072 -14.23744494 27.14766072 -11.83496094 26.92211914 C-9.39258025 25.69475461 -7.80181443 24.13821931 -5.890625 22.18359375 C-4.75947266 21.03793945 -4.75947266 21.03793945 -3.60546875 19.86914062 C-2.82816406 19.06669922 -2.05085938 18.26425781 -1.25 17.4375 C-0.06083984 16.22803711 -0.06083984 16.22803711 1.15234375 14.99414062 C3.10847046 13.00266222 5.05725719 11.00452279 7 9 C4.69 8.67 2.38 8.34 0 8 C0 5.36 0 2.72 0 0 Z " fill="#9745FF" transform="translate(105,4)"/>
</svg>
