<svg width="28" height="28" viewBox="0 0 28 28" fill="none" xmlns="http://www.w3.org/2000/svg">
<g id="Iconly/Bold/Paper">
<g id="Paper">
<path id="Paper_2" fill-rule="evenodd" clip-rule="evenodd" d="M10.413 19.1216H16.6968C17.1704 19.1216 17.5632 18.7249 17.5632 18.2466C17.5632 17.7682 17.1704 17.3832 16.6968 17.3832H10.413C9.93942 17.3832 9.54668 17.7682 9.54668 18.2466C9.54668 18.7249 9.93942 19.1216 10.413 19.1216ZM14.3173 11.5499H10.413C9.93942 11.5499 9.54668 11.9466 9.54668 12.4249C9.54668 12.9032 9.93942 13.2882 10.413 13.2882H14.3173C14.7909 13.2882 15.1836 12.9032 15.1836 12.4249C15.1836 11.9466 14.7909 11.5499 14.3173 11.5499ZM22.5608 10.5298C22.8323 10.5267 23.1279 10.5233 23.3965 10.5233C23.6853 10.5233 23.9163 10.7566 23.9163 11.0483V20.4283C23.9163 23.3216 21.5946 25.6666 18.7299 25.6666H9.53515C6.53185 25.6666 4.08301 23.2049 4.08301 20.1716V7.59492C4.08301 4.70159 6.41634 2.33325 9.29258 2.33325H15.4609C15.7612 2.33325 15.9922 2.57825 15.9922 2.86992V6.62659C15.9922 8.76159 17.7365 10.5116 19.8503 10.5233C20.3441 10.5233 20.7794 10.5269 21.1603 10.5302C21.4567 10.5327 21.7201 10.5349 21.9526 10.5349C22.1171 10.5349 22.3302 10.5325 22.5608 10.5298ZM22.8793 8.82692C21.9298 8.83042 20.8105 8.82692 20.0054 8.81875C18.7278 8.81875 17.6755 7.75592 17.6755 6.46558V3.39025C17.6755 2.88742 18.2797 2.63775 18.625 3.00058C19.2501 3.65702 20.1091 4.55932 20.9641 5.45754C21.8172 6.35364 22.6664 7.24567 23.2755 7.88542C23.6128 8.23892 23.3656 8.82575 22.8793 8.82692Z" fill="#9745FF"/>
</g>
</g>
</svg>
