<svg width="14" height="18" viewBox="0 0 14 18" fill="none" xmlns="http://www.w3.org/2000/svg">
    <path d="M11.0833 6.00889V4.29206C11.0833 1.88851 9.20769 0 6.82051 0C4.43333 0 2.55769 1.88851 2.55769 4.29206V6.00889C1.10833 6.00889 0 7.12482 0 8.58412V14.593C0 16.0523 1.10833 17.1682 2.55769 17.1682H11.0833C12.5327 17.1682 13.641 16.0523 13.641 14.593V8.58412C13.641 7.12482 12.5327 6.00889 11.0833 6.00889ZM4.26282 4.29206C4.26282 2.83276 5.37115 1.71682 6.82051 1.71682C8.26987 1.71682 9.37821 2.83276 9.37821 4.29206V6.00889H4.26282V4.29206ZM7.67308 12.8762C7.67308 13.3912 7.33205 13.7346 6.82051 13.7346C6.30897 13.7346 5.96795 13.3912 5.96795 12.8762V10.3009C5.96795 9.7859 6.30897 9.44254 6.82051 9.44254C7.33205 9.44254 7.67308 9.7859 7.67308 10.3009V12.8762Z" fill="#9A9A9A"/>
</svg>
