<svg width="24" height="24" viewBox="0 0 24 24" fill="none" xmlns="http://www.w3.org/2000/svg">
<path d="M11.0971 11.4482C13.5681 11.4482 15.5712 9.44505 15.5712 6.97408C15.5712 4.50311 13.5681 2.5 11.0971 2.5C8.62616 2.5 6.62305 4.50311 6.62305 6.97408C6.62305 9.44505 8.62616 11.4482 11.0971 11.4482Z" fill="#9A9A9A"/>
<path fill-rule="evenodd" clip-rule="evenodd" d="M4.00001 17.6708C3.99883 17.3563 4.06917 17.0456 4.20574 16.7623C4.63429 15.9052 5.84281 15.4509 6.84563 15.2452C7.56886 15.0909 8.30208 14.9878 9.03983 14.9367C10.4057 14.8167 11.7795 14.8167 13.1454 14.9367C13.8831 14.9884 14.6163 15.0915 15.3396 15.2452C16.3424 15.4509 17.5509 15.8623 17.9795 16.7623C18.2541 17.3399 18.2541 18.0104 17.9795 18.588C17.5509 19.4879 16.3424 19.8993 15.3396 20.0965C14.6172 20.2572 13.8837 20.3632 13.1454 20.4136C12.0337 20.5078 10.9168 20.525 9.80266 20.465C9.54553 20.465 9.29697 20.465 9.03983 20.4136C8.30426 20.3638 7.57358 20.2578 6.8542 20.0965C5.84281 19.8993 4.64286 19.4879 4.20574 18.588C4.06987 18.3013 3.9996 17.988 4.00001 17.6708Z" fill="#9A9A9A"/>
</svg>
