<svg width="24" height="26" viewBox="0 0 24 26" fill="none" xmlns="http://www.w3.org/2000/svg">
    <path fill-rule="evenodd" clip-rule="evenodd" d="M8.4277 3.67334C8.8477 3.67334 9.1887 4.01802 9.1887 4.44356C9.1887 4.8681 8.8487 5.21277 8.4277 5.21277L6.7987 5.21379C5.4467 5.21581 4.3467 6.32869 4.3467 7.69629V9.61275C4.3467 10.0373 4.0047 10.383 3.5847 10.383C3.1647 10.383 2.8237 10.0373 2.8237 9.61275V7.69629C2.8237 5.48063 4.6067 3.67637 6.7977 3.67435L8.4267 3.67334H8.4277ZM15.6006 3.67363H17.1936C19.3906 3.67363 21.1766 5.47891 21.1766 7.69962V9.61304C21.1766 10.0376 20.8366 10.3833 20.4156 10.3833C19.9956 10.3833 19.6546 10.0376 19.6546 9.61304V7.69962C19.6546 6.32797 18.5506 5.21206 17.1936 5.21206H15.6006C15.1806 5.21206 14.8396 4.86839 14.8396 4.44386C14.8396 4.01831 15.1806 3.67363 15.6006 3.67363ZM14.7625 7.53123H9.2385C7.9745 7.54437 6.9585 8.58852 6.9695 9.86717V11.1509C6.9725 11.3005 7.0915 11.4228 7.2395 11.4278H16.7595C16.9085 11.4238 17.0275 11.3015 17.0325 11.1509V9.86717C17.0335 9.24957 16.7975 8.65624 16.3715 8.21452C15.9485 7.77685 15.3675 7.53123 14.7625 7.53123ZM1.762 12.9929H22.239C22.659 12.9929 23 13.3376 23 13.7632C23 14.1877 22.659 14.5314 22.239 14.5314H21.177V18.2005C21.177 20.4223 19.39 22.2275 17.194 22.2275H15.601C15.18 22.2275 14.839 21.8828 14.839 21.4573C14.839 21.0328 15.18 20.6881 15.601 20.6881H17.194C18.551 20.6881 19.655 19.5732 19.655 18.2005V14.5314H17.032V15.5533C17.042 16.8319 16.027 17.8771 14.762 17.8892H9.238C7.974 17.8771 6.959 16.8319 6.969 15.5533V14.5314H4.346V18.2046C4.346 19.5722 5.447 20.6851 6.8 20.6871L8.428 20.6881C8.848 20.6881 9.189 21.0328 9.189 21.4573C9.188 21.8828 8.848 22.2275 8.427 22.2275L6.798 22.2265C4.607 22.2245 2.823 20.4202 2.823 18.2046V14.5314H1.762C1.342 14.5314 1 14.1877 1 13.7632C1 13.3376 1.342 12.9929 1.762 12.9929Z" fill="white"/>
</svg>
