<?xml version="1.0" encoding="UTF-8" standalone="no" ?>
<!DOCTYPE svg PUBLIC "-//W3C//DTD SVG 1.1//EN" "http://www.w3.org/Graphics/SVG/1.1/DTD/svg11.dtd">
<svg xmlns="http://www.w3.org/2000/svg" xmlns:xlink="http://www.w3.org/1999/xlink" version="1.1" width="32" height="32" viewBox="0 0 32 32" xml:space="preserve">
<desc>Created with Fabric.js 5.2.4</desc>
<defs>
</defs>
<g transform="matrix(1 0 0 1 16 16)" id="bc23c558-d879-4222-a2ca-1c6914c49cc3"  >
<rect style="stroke: none; stroke-width: 1; stroke-dasharray: none; stroke-linecap: butt; stroke-dashoffset: 0; stroke-linejoin: miter; stroke-miterlimit: 4; fill: rgb(255,255,255); fill-rule: nonzero; opacity: 1; visibility: hidden;" vector-effect="non-scaling-stroke"  x="-16" y="-16" rx="0" ry="0" width="32" height="32" />
</g>
<g transform="matrix(Infinity NaN NaN Infinity 0 0)" id="cdba0fc2-38aa-4be2-b16a-6a29cc5c1787"  >
</g>
<g transform="matrix(0.03 0 0 0.03 32 32)"  >
<g style="" vector-effect="non-scaling-stroke"   >
		<g transform="matrix(1 0 0 1 28.07 27.81)"  >
<path style="stroke: none; stroke-width: 1; stroke-dasharray: none; stroke-linecap: butt; stroke-dashoffset: 0; stroke-linejoin: miter; stroke-miterlimit: 4; fill: rgb(90,90,90); fill-rule: nonzero; opacity: 1;" vector-effect="non-scaling-stroke"  transform=" translate(11.37, -22.31)" d="M 0 0 C 5.82485779 3.51996782 10.54466582 8.98962934 12.5625 15.5 C 13.36764105 23.33608208 13.68710392 31.11922577 8.5625 37.5 C 3.75801361 42.54521222 -0.59927055 46.10562995 -7.70703125 46.8359375 C -16.22326573 46.92983204 -22.11345494 46.6177288 -28.40234375 40.62890625 C -34.7841668 33.72505269 -35.91792252 28.29832071 -35.7421875 18.9453125 C -35.04689797 11.08319245 -31.38995981 6.95041296 -25.53515625 1.9453125 C -18.47077988 -2.92213491 -7.84396301 -3.47595223 0 0 Z M -28.4375 12.0625 C -31.34354105 17.31916129 -31.50996671 22.67037741 -30.4375 28.5 C -28.22873835 33.73414291 -24.76546754 38.40875058 -19.55078125 40.90625 C -13.33121927 42.65370549 -6.71787388 42.69464544 -1 39.5 C 3.94136647 35.79655415 6.97816591 31.77405513 8.07421875 25.6328125 C 8.44975505 19.07344517 7.38421139 14.54802894 3.31640625 9.34765625 C -1.17854218 4.61244331 -4.81467453 3.26757927 -11.375 2.9375 C -19.02676774 3.234006 -23.86349737 5.95958284 -28.4375 12.0625 Z" stroke-linecap="round" />
</g>
		<g transform="matrix(1 0 0 1 -28 28)"  >
<path style="stroke: none; stroke-width: 1; stroke-dasharray: none; stroke-linecap: butt; stroke-dashoffset: 0; stroke-linejoin: miter; stroke-miterlimit: 4; fill: rgb(91,91,91); fill-rule: nonzero; opacity: 1;" vector-effect="non-scaling-stroke"  transform=" translate(-10.38, -24.66)" d="M 0 0 C 0.8245166 -0.00478363 1.6490332 -0.00956726 2.49853516 -0.01449585 C 4.23667313 -0.01788872 5.97487544 -0.00872903 7.71289062 0.01220703 C 10.36733825 0.03898521 13.01755825 0.01244254 15.671875 -0.01953125 C 17.36459263 -0.01622704 19.05730763 -0.00982056 20.75 0 C 21.93456787 -0.01518173 21.93456787 -0.01518173 23.14306641 -0.03067017 C 27.11276955 0.05339275 28.99170918 0.40801499 32.37255859 2.66650391 C 35.0441572 6.66575868 35.09944932 9.57732793 35.0390625 14.2890625 C 35.04384613 15.1135791 35.04862976 15.9380957 35.05355835 16.78759766 C 35.05695122 18.52573563 35.04779153 20.26393794 35.02685547 22.00195312 C 35.00007729 24.65640075 35.02661996 27.30662075 35.05859375 29.9609375 C 35.05528954 31.65365513 35.04888306 33.34637013 35.0390625 35.0390625 C 35.04918365 35.82877441 35.05930481 36.61848633 35.06973267 37.43212891 C 34.98566975 41.40183205 34.63104751 43.28077168 32.37255859 46.66162109 C 28.37330382 49.3332197 25.46173457 49.38851182 20.75 49.328125 C 19.5132251 49.33530045 19.5132251 49.33530045 18.25146484 49.34262085 C 16.51332687 49.34601372 14.77512456 49.33685403 13.03710938 49.31591797 C 10.38266175 49.28913979 7.73244175 49.31568246 5.078125 49.34765625 C 3.38540737 49.34435204 1.69269237 49.33794556 0 49.328125 C -0.78971191 49.33824615 -1.57942383 49.34836731 -2.39306641 49.35879517 C -6.36276955 49.27473225 -8.24170918 48.92011001 -11.62255859 46.66162109 C -14.2941572 42.66236632 -14.34944932 39.75079707 -14.2890625 35.0390625 C -14.29384613 34.2145459 -14.29862976 33.3900293 -14.30355835 32.54052734 C -14.30695122 30.80238937 -14.29779153 29.06418706 -14.27685547 27.32617188 C -14.25007729 24.67172425 -14.27661996 22.02150425 -14.30859375 19.3671875 C -14.30528954 17.67446987 -14.29888306 15.98175487 -14.2890625 14.2890625 C -14.29918365 13.49935059 -14.30930481 12.70963867 -14.31973267 11.89599609 C -14.23566975 7.92629295 -13.88104751 6.04735332 -11.62255859 2.66650391 C -7.62330382 -0.0050947 -4.71173457 -0.06038682 0 0 Z M -8.625 7.6640625 C -10.42645765 13.06843545 -9.85235608 18.88374416 -9.875 24.5390625 C -9.895625 25.81910156 -9.91625 27.09914063 -9.9375 28.41796875 C -9.94265625 29.65160156 -9.9478125 30.88523437 -9.953125 32.15625 C -9.9624707 33.28401855 -9.97181641 34.41178711 -9.98144531 35.57373047 C -9.58094146 39.04604402 -8.75397614 40.91086107 -6.625 43.6640625 C -1.22062705 45.46552015 4.59468166 44.89141858 10.25 44.9140625 C 11.53003906 44.9346875 12.81007813 44.9553125 14.12890625 44.9765625 C 15.36253906 44.98171875 16.59617187 44.986875 17.8671875 44.9921875 C 19.55884033 45.00620605 19.55884033 45.00620605 21.28466797 45.02050781 C 24.75698152 44.62000396 26.62179857 43.79303864 29.375 41.6640625 C 31.17645765 36.25968955 30.60235608 30.44438084 30.625 24.7890625 C 30.645625 23.50902344 30.66625 22.22898437 30.6875 20.91015625 C 30.69265625 19.67652344 30.6978125 18.44289063 30.703125 17.171875 C 30.7124707 16.04410645 30.72181641 14.91633789 30.73144531 13.75439453 C 30.33094146 10.28208098 29.50397614 8.41726393 27.375 5.6640625 C 21.97062705 3.86260485 16.15531834 4.43670642 10.5 4.4140625 C 9.21996094 4.3934375 7.93992187 4.3728125 6.62109375 4.3515625 C 5.38746094 4.34640625 4.15382813 4.34125 2.8828125 4.3359375 C 1.19115967 4.32191895 1.19115967 4.32191895 -0.53466797 4.30761719 C -4.00698152 4.70812104 -5.87179857 5.53508636 -8.625 7.6640625 Z" stroke-linecap="round" />
</g>
		<g transform="matrix(1 0 0 1 28 -28)"  >
<path style="stroke: none; stroke-width: 1; stroke-dasharray: none; stroke-linecap: butt; stroke-dashoffset: 0; stroke-linejoin: miter; stroke-miterlimit: 4; fill: rgb(91,91,91); fill-rule: nonzero; opacity: 1;" vector-effect="non-scaling-stroke"  transform=" translate(-10.38, -24.66)" d="M 0 0 C 0.8245166 -0.00478363 1.6490332 -0.00956726 2.49853516 -0.01449585 C 4.23667313 -0.01788872 5.97487544 -0.00872903 7.71289062 0.01220703 C 10.36733825 0.03898521 13.01755825 0.01244254 15.671875 -0.01953125 C 17.36459263 -0.01622704 19.05730763 -0.00982056 20.75 0 C 21.93456787 -0.01518173 21.93456787 -0.01518173 23.14306641 -0.03067017 C 27.11276955 0.05339275 28.99170918 0.40801499 32.37255859 2.66650391 C 35.0441572 6.66575868 35.09944932 9.57732793 35.0390625 14.2890625 C 35.04384613 15.1135791 35.04862976 15.9380957 35.05355835 16.78759766 C 35.05695122 18.52573563 35.04779153 20.26393794 35.02685547 22.00195312 C 35.00007729 24.65640075 35.02661996 27.30662075 35.05859375 29.9609375 C 35.05528954 31.65365513 35.04888306 33.34637013 35.0390625 35.0390625 C 35.04918365 35.82877441 35.05930481 36.61848633 35.06973267 37.43212891 C 34.98566975 41.40183205 34.63104751 43.28077168 32.37255859 46.66162109 C 28.37330382 49.3332197 25.46173457 49.38851182 20.75 49.328125 C 19.5132251 49.33530045 19.5132251 49.33530045 18.25146484 49.34262085 C 16.51332687 49.34601372 14.77512456 49.33685403 13.03710938 49.31591797 C 10.38266175 49.28913979 7.73244175 49.31568246 5.078125 49.34765625 C 3.38540737 49.34435204 1.69269237 49.33794556 0 49.328125 C -0.78971191 49.33824615 -1.57942383 49.34836731 -2.39306641 49.35879517 C -6.36276955 49.27473225 -8.24170918 48.92011001 -11.62255859 46.66162109 C -14.2941572 42.66236632 -14.34944932 39.75079707 -14.2890625 35.0390625 C -14.29384613 34.2145459 -14.29862976 33.3900293 -14.30355835 32.54052734 C -14.30695122 30.80238937 -14.29779153 29.06418706 -14.27685547 27.32617188 C -14.25007729 24.67172425 -14.27661996 22.02150425 -14.30859375 19.3671875 C -14.30528954 17.67446987 -14.29888306 15.98175487 -14.2890625 14.2890625 C -14.29918365 13.49935059 -14.30930481 12.70963867 -14.31973267 11.89599609 C -14.23566975 7.92629295 -13.88104751 6.04735332 -11.62255859 2.66650391 C -7.62330382 -0.0050947 -4.71173457 -0.06038682 0 0 Z M -8.625 7.6640625 C -10.42645765 13.06843545 -9.85235608 18.88374416 -9.875 24.5390625 C -9.895625 25.81910156 -9.91625 27.09914063 -9.9375 28.41796875 C -9.94265625 29.65160156 -9.9478125 30.88523437 -9.953125 32.15625 C -9.9624707 33.28401855 -9.97181641 34.41178711 -9.98144531 35.57373047 C -9.58094146 39.04604402 -8.75397614 40.91086107 -6.625 43.6640625 C -1.22062705 45.46552015 4.59468166 44.89141858 10.25 44.9140625 C 11.53003906 44.9346875 12.81007813 44.9553125 14.12890625 44.9765625 C 15.36253906 44.98171875 16.59617187 44.986875 17.8671875 44.9921875 C 19.55884033 45.00620605 19.55884033 45.00620605 21.28466797 45.02050781 C 24.75698152 44.62000396 26.62179857 43.79303864 29.375 41.6640625 C 31.17645765 36.25968955 30.60235608 30.44438084 30.625 24.7890625 C 30.645625 23.50902344 30.66625 22.22898437 30.6875 20.91015625 C 30.69265625 19.67652344 30.6978125 18.44289063 30.703125 17.171875 C 30.7124707 16.04410645 30.72181641 14.91633789 30.73144531 13.75439453 C 30.33094146 10.28208098 29.50397614 8.41726393 27.375 5.6640625 C 21.97062705 3.86260485 16.15531834 4.43670642 10.5 4.4140625 C 9.21996094 4.3934375 7.93992187 4.3728125 6.62109375 4.3515625 C 5.38746094 4.34640625 4.15382813 4.34125 2.8828125 4.3359375 C 1.19115967 4.32191895 1.19115967 4.32191895 -0.53466797 4.30761719 C -4.00698152 4.70812104 -5.87179857 5.53508636 -8.625 7.6640625 Z" stroke-linecap="round" />
</g>
		<g transform="matrix(1 0 0 1 -28 -28)"  >
<path style="stroke: none; stroke-width: 1; stroke-dasharray: none; stroke-linecap: butt; stroke-dashoffset: 0; stroke-linejoin: miter; stroke-miterlimit: 4; fill: rgb(91,91,91); fill-rule: nonzero; opacity: 1;" vector-effect="non-scaling-stroke"  transform=" translate(-10.38, -24.66)" d="M 0 0 C 0.8245166 -0.00478363 1.6490332 -0.00956726 2.49853516 -0.01449585 C 4.23667313 -0.01788872 5.97487544 -0.00872903 7.71289062 0.01220703 C 10.36733825 0.03898521 13.01755825 0.01244254 15.671875 -0.01953125 C 17.36459263 -0.01622704 19.05730763 -0.00982056 20.75 0 C 21.93456787 -0.01518173 21.93456787 -0.01518173 23.14306641 -0.03067017 C 27.11276955 0.05339275 28.99170918 0.40801499 32.37255859 2.66650391 C 35.0441572 6.66575868 35.09944932 9.57732793 35.0390625 14.2890625 C 35.04384613 15.1135791 35.04862976 15.9380957 35.05355835 16.78759766 C 35.05695122 18.52573563 35.04779153 20.26393794 35.02685547 22.00195312 C 35.00007729 24.65640075 35.02661996 27.30662075 35.05859375 29.9609375 C 35.05528954 31.65365513 35.04888306 33.34637013 35.0390625 35.0390625 C 35.04918365 35.82877441 35.05930481 36.61848633 35.06973267 37.43212891 C 34.98566975 41.40183205 34.63104751 43.28077168 32.37255859 46.66162109 C 28.37330382 49.3332197 25.46173457 49.38851182 20.75 49.328125 C 19.5132251 49.33530045 19.5132251 49.33530045 18.25146484 49.34262085 C 16.51332687 49.34601372 14.77512456 49.33685403 13.03710938 49.31591797 C 10.38266175 49.28913979 7.73244175 49.31568246 5.078125 49.34765625 C 3.38540737 49.34435204 1.69269237 49.33794556 0 49.328125 C -0.78971191 49.33824615 -1.57942383 49.34836731 -2.39306641 49.35879517 C -6.36276955 49.27473225 -8.24170918 48.92011001 -11.62255859 46.66162109 C -14.2941572 42.66236632 -14.34944932 39.75079707 -14.2890625 35.0390625 C -14.29384613 34.2145459 -14.29862976 33.3900293 -14.30355835 32.54052734 C -14.30695122 30.80238937 -14.29779153 29.06418706 -14.27685547 27.32617188 C -14.25007729 24.67172425 -14.27661996 22.02150425 -14.30859375 19.3671875 C -14.30528954 17.67446987 -14.29888306 15.98175487 -14.2890625 14.2890625 C -14.29918365 13.49935059 -14.30930481 12.70963867 -14.31973267 11.89599609 C -14.23566975 7.92629295 -13.88104751 6.04735332 -11.62255859 2.66650391 C -7.62330382 -0.0050947 -4.71173457 -0.06038682 0 0 Z M -8.625 7.6640625 C -10.42645765 13.06843545 -9.85235608 18.88374416 -9.875 24.5390625 C -9.895625 25.81910156 -9.91625 27.09914063 -9.9375 28.41796875 C -9.94265625 29.65160156 -9.9478125 30.88523437 -9.953125 32.15625 C -9.9624707 33.28401855 -9.97181641 34.41178711 -9.98144531 35.57373047 C -9.58094146 39.04604402 -8.75397614 40.91086107 -6.625 43.6640625 C -1.22062705 45.46552015 4.59468166 44.89141858 10.25 44.9140625 C 11.53003906 44.9346875 12.81007813 44.9553125 14.12890625 44.9765625 C 15.36253906 44.98171875 16.59617187 44.986875 17.8671875 44.9921875 C 19.55884033 45.00620605 19.55884033 45.00620605 21.28466797 45.02050781 C 24.75698152 44.62000396 26.62179857 43.79303864 29.375 41.6640625 C 31.17645765 36.25968955 30.60235608 30.44438084 30.625 24.7890625 C 30.645625 23.50902344 30.66625 22.22898437 30.6875 20.91015625 C 30.69265625 19.67652344 30.6978125 18.44289063 30.703125 17.171875 C 30.7124707 16.04410645 30.72181641 14.91633789 30.73144531 13.75439453 C 30.33094146 10.28208098 29.50397614 8.41726393 27.375 5.6640625 C 21.97062705 3.86260485 16.15531834 4.43670642 10.5 4.4140625 C 9.21996094 4.3934375 7.93992187 4.3728125 6.62109375 4.3515625 C 5.38746094 4.34640625 4.15382813 4.34125 2.8828125 4.3359375 C 1.19115967 4.32191895 1.19115967 4.32191895 -0.53466797 4.30761719 C -4.00698152 4.70812104 -5.87179857 5.53508636 -8.625 7.6640625 Z" stroke-linecap="round" />
</g>
</g>
</g>
</svg>