<svg width="48" height="48" viewBox="0 0 48 48" fill="none" xmlns="http://www.w3.org/2000/svg">
    <circle cx="24" cy="24" r="24" fill="#9745FF"/>
    <path fill-rule="evenodd" clip-rule="evenodd" d="M29.44 18.2364C29.48 18.3063 29.55 18.3563 29.64 18.3563C32.04 18.3563 34 20.3141 34 22.7114V28.6448C34 31.0422 32.04 33 29.64 33H18.36C15.95 33 14 31.0422 14 28.6448V22.7114C14 20.3141 15.95 18.3563 18.36 18.3563C18.44 18.3563 18.52 18.3163 18.55 18.2364L18.61 18.1165C18.6445 18.044 18.6799 17.9694 18.7158 17.8938C18.9716 17.3549 19.2546 16.7588 19.43 16.4084C19.89 15.5094 20.67 15.01 21.64 15H26.35C27.32 15.01 28.11 15.5094 28.57 16.4084C28.7275 16.7231 28.9674 17.2299 29.1987 17.7184C29.2464 17.8192 29.2938 17.9192 29.34 18.0166L29.44 18.2364ZM28.71 22.0721C28.71 22.5716 29.11 22.9711 29.61 22.9711C30.11 22.9711 30.52 22.5716 30.52 22.0721C30.52 21.5727 30.11 21.1632 29.61 21.1632C29.11 21.1632 28.71 21.5727 28.71 22.0721ZM22.27 23.6204C22.74 23.1509 23.35 22.9012 24 22.9012C24.65 22.9012 25.26 23.1509 25.72 23.6104C26.18 24.0699 26.43 24.6792 26.43 25.3285C26.42 26.667 25.34 27.7558 24 27.7558C23.35 27.7558 22.74 27.5061 22.28 27.0466C21.82 26.5871 21.57 25.9778 21.57 25.3285V25.3185C21.56 24.6892 21.81 24.0799 22.27 23.6204ZM26.77 28.1054C26.06 28.8147 25.08 29.2542 24 29.2542C22.95 29.2542 21.97 28.8446 21.22 28.1054C20.48 27.3563 20.07 26.3774 20.07 25.3285C20.06 24.2897 20.47 23.3108 21.21 22.5616C21.96 21.8124 22.95 21.4029 24 21.4029C25.05 21.4029 26.04 21.8124 26.78 22.5516C27.52 23.3008 27.93 24.2897 27.93 25.3285C27.92 26.4173 27.48 27.3962 26.77 28.1054Z" fill="white"/>
</svg>
