<svg width="32" height="32" viewBox="0 0 32 32" fill="none" xmlns="http://www.w3.org/2000/svg">
    <path d="M12.2098 27.695V23.6061C12.2098 22.566 13.0577 21.7209 14.1082 21.714H17.9563C19.0118 21.714 19.8675 22.5611 19.8675 23.6061V23.6061V27.7077C19.8673 28.5908 20.5792 29.3125 21.4709 29.3332H24.0363C26.5937 29.3332 28.6668 27.2807 28.6668 24.7489V24.7489V13.117C28.6532 12.1209 28.1808 11.1856 27.3841 10.5772L18.6105 3.58024C17.0734 2.36193 14.8884 2.36193 13.3514 3.58024L4.6162 10.5899C3.81651 11.1959 3.34335 12.1327 3.3335 13.1297V24.7489C3.3335 27.2807 5.40666 29.3332 7.96404 29.3332H10.5294C11.4433 29.3332 12.1841 28.5998 12.1841 27.695V27.695" stroke="#999999" stroke-width="1.5" stroke-linecap="round" stroke-linejoin="round"/>
</svg>
