<svg width="48" height="48" viewBox="0 0 48 48" fill="none" xmlns="http://www.w3.org/2000/svg">
    <circle cx="24" cy="24" r="24" fill="#9745FF"/>
    <path fill-rule="evenodd" clip-rule="evenodd" d="M20.4277 15C20.8477 15 21.1887 15.3344 21.1887 15.7472C21.1887 16.1591 20.8487 16.4935 20.4277 16.4935L18.7987 16.4944C17.4467 16.4964 16.3467 17.576 16.3467 18.9028V20.762C16.3467 21.1739 16.0047 21.5092 15.5847 21.5092C15.1647 21.5092 14.8237 21.1739 14.8237 20.762V18.9028C14.8237 16.7533 16.6067 15.0029 18.7977 15.001L20.4267 15H20.4277ZM27.6006 15.0003H29.1936C31.3906 15.0003 33.1766 16.7516 33.1766 18.906V20.7623C33.1766 21.1742 32.8366 21.5095 32.4156 21.5095C31.9956 21.5095 31.6546 21.1742 31.6546 20.7623V18.906C31.6546 17.5754 30.5506 16.4928 29.1936 16.4928H27.6006C27.1806 16.4928 26.8396 16.1594 26.8396 15.7475C26.8396 15.3347 27.1806 15.0003 27.6006 15.0003ZM26.7625 18.7427H21.2385C19.9745 18.7554 18.9585 19.7684 18.9695 21.0088V22.2542C18.9725 22.3993 19.0915 22.518 19.2395 22.5229H28.7595C28.9085 22.5189 29.0275 22.4003 29.0325 22.2542V21.0088C29.0335 20.4097 28.7975 19.8341 28.3715 19.4055C27.9485 18.9809 27.3675 18.7427 26.7625 18.7427ZM13.762 24.0412H34.239C34.659 24.0412 35 24.3756 35 24.7885C35 25.2003 34.659 25.5337 34.239 25.5337H33.177V29.0933C33.177 31.2486 31.39 33 29.194 33H27.601C27.18 33 26.839 32.6656 26.839 32.2528C26.839 31.8409 27.18 31.5065 27.601 31.5065H29.194C30.551 31.5065 31.655 30.4249 31.655 29.0933V25.5337H29.032V26.5251C29.042 27.7656 28.027 28.7795 26.762 28.7913H21.238C19.974 28.7795 18.959 27.7656 18.969 26.5251V25.5337H16.346V29.0972C16.346 30.424 17.447 31.5036 18.8 31.5056L20.428 31.5065C20.848 31.5065 21.189 31.8409 21.189 32.2528C21.188 32.6656 20.848 33 20.427 33L18.798 32.999C16.607 32.9971 14.823 31.2467 14.823 29.0972V25.5337H13.762C13.342 25.5337 13 25.2003 13 24.7885C13 24.3756 13.342 24.0412 13.762 24.0412Z" fill="white"/>
</svg>
