<svg width="21" height="21" viewBox="0 0 21 21" fill="none" xmlns="http://www.w3.org/2000/svg">
<path fill-rule="evenodd" clip-rule="evenodd" d="M0.0834961 9.11442C0.0834961 4.12665 4.08385 0.083252 9.01854 0.083252C11.3883 0.083252 13.6609 1.03475 15.3366 2.72842C17.0122 4.42209 17.9536 6.71921 17.9536 9.11442C17.9536 14.1022 13.9532 18.1456 9.01854 18.1456C4.08385 18.1456 0.0834961 14.1022 0.0834961 9.11442ZM17.8057 16.3898L20.4668 18.5379H20.513C21.0514 19.082 21.0514 19.9643 20.513 20.5085C19.9747 21.0526 19.1018 21.0526 18.5634 20.5085L16.3551 17.9775C16.1463 17.7672 16.0289 17.4816 16.0289 17.1836C16.0289 16.8857 16.1463 16.6001 16.3551 16.3898C16.7577 15.9899 17.4031 15.9899 17.8057 16.3898Z" fill="#9745FF"/>
</svg>
