<svg width="30" height="31" viewBox="0 0 30 31" fill="none" xmlns="http://www.w3.org/2000/svg">
<path d="M10.7022 28.9538V24.3451C10.7022 23.1686 11.6583 22.2149 12.8377 22.2149H17.1489C17.7153 22.2149 18.2585 22.4393 18.6589 22.8388C19.0594 23.2383 19.2844 23.7801 19.2844 24.3451V28.9538C19.2808 29.4429 19.4731 29.9132 19.8186 30.2603C20.164 30.6074 20.6341 30.8026 21.1244 30.8026H24.0657C25.4395 30.8061 26.7581 30.2643 27.7308 29.2966C28.7034 28.3289 29.25 27.0149 29.25 25.6446V12.5153C29.25 11.4084 28.7581 10.3584 27.9069 9.64827L17.901 1.67689C16.1605 0.27923 13.6667 0.324357 11.9781 1.78406L2.20052 9.64827C1.30911 10.3375 0.776328 11.3906 0.75 12.5153V25.6312C0.75 28.4873 3.07107 30.8026 5.93426 30.8026H8.80844C9.82684 30.8026 10.6545 29.983 10.6619 28.9671L10.7022 28.9538Z" fill="#9745FF"/>
</svg>
