<svg width="30" height="32" viewBox="0 0 30 32" fill="none" xmlns="http://www.w3.org/2000/svg">
<path d="M10.7022 29.1194V24.3916C10.7022 23.1847 11.6583 22.2064 12.8377 22.2064H17.1489C17.7153 22.2064 18.2585 22.4366 18.6589 22.8464C19.0594 23.2562 19.2844 23.8121 19.2844 24.3916V29.1194C19.2808 29.6212 19.4731 30.1036 19.8186 30.4597C20.164 30.8158 20.6341 31.016 21.1244 31.016H24.0657C25.4395 31.0197 26.7581 30.4638 27.7308 29.4711C28.7034 28.4784 29.25 27.1305 29.25 25.7247V12.256C29.25 11.1205 28.7581 10.0434 27.9069 9.31487L17.901 1.13742C16.1605 -0.296362 13.6667 -0.250069 11.9781 1.24737L2.20052 9.31487C1.30911 10.0219 0.776328 11.1022 0.75 12.256V25.711C0.75 28.6409 3.07107 31.016 5.93426 31.016H8.80844C9.82684 31.0161 10.6545 30.1753 10.6619 29.1332L10.7022 29.1194Z" fill="#9745FF"/>
</svg>