<svg width="17" height="24" viewBox="0 0 17 24" fill="none" xmlns="http://www.w3.org/2000/svg">
<path d="M1.75006 14.0001H6.16693L5.25507 22.621C5.25104 22.647 5.24994 22.7239 5.24994 22.7499C5.24994 23.439 5.81097 24 6.5 24C6.89203 24 7.26593 23.812 7.51404 23.4791L16.25 11.0001C16.4109 10.7849 16.4999 10.519 16.4999 10.2501C16.4999 9.56104 15.9391 9 15.2501 9H9.84406L10.744 1.39691C10.7469 1.36798 10.749 1.27899 10.749 1.25006C10.7501 0.561035 10.189 0 9.5 0C9.10797 0 8.73407 0.188049 8.47809 0.531006L0.749939 12C0.588989 12.215 0.5 12.481 0.5 12.75C0.5 13.439 1.06104 14.0001 1.75006 14.0001Z" fill="white"/>
</svg>
