<svg width="33" height="32" viewBox="0 0 33 32" fill="none" xmlns="http://www.w3.org/2000/svg">
<path d="M12.7098 27.695V23.6061C12.7098 22.566 13.5577 21.7209 14.6082 21.714H18.4563C19.5118 21.714 20.3675 22.5611 20.3675 23.6061V23.6061V27.7077C20.3673 28.5908 21.0792 29.3125 21.9709 29.3332H24.5363C27.0937 29.3332 29.1668 27.2807 29.1668 24.7489V24.7489V13.117C29.1532 12.1209 28.6808 11.1856 27.8841 10.5772L19.1105 3.58024C17.5734 2.36193 15.3884 2.36193 13.8514 3.58024L5.1162 10.5899C4.31651 11.1959 3.84335 12.1327 3.8335 13.1297V24.7489C3.8335 27.2807 5.90666 29.3332 8.46404 29.3332H11.0294C11.9433 29.3332 12.6841 28.5998 12.6841 27.695V27.695" stroke="#999999" stroke-width="1.5" stroke-linecap="round" stroke-linejoin="round"/>
</svg>
