<svg width="27" height="30" viewBox="0 0 27 30" fill="none" xmlns="http://www.w3.org/2000/svg">
<path d="M9.70978 26.695V22.6061C9.70976 21.566 10.5577 20.7209 11.6082 20.714H15.4563C16.5118 20.714 17.3675 21.5611 17.3675 22.6061V22.6061V26.7077C17.3673 27.5908 18.0792 28.3125 18.9709 28.3332H21.5363C24.0937 28.3332 26.1668 26.2807 26.1668 23.7489V23.7489V12.117C26.1532 11.1209 25.6808 10.1856 24.8841 9.57722L16.1105 2.58024C14.5734 1.36193 12.3884 1.36193 10.8514 2.58024L2.1162 9.58991C1.31651 10.1959 0.843345 11.1327 0.833496 12.1297V23.7489C0.833496 26.2807 2.90666 28.3332 5.46404 28.3332H8.02945C8.9433 28.3332 9.68413 27.5998 9.68413 26.695V26.695" stroke="#999999" stroke-width="1.5" stroke-linecap="round" stroke-linejoin="round"/>
</svg>