<svg width="34" height="34" viewBox="0 0 34 34" fill="none" xmlns="http://www.w3.org/2000/svg">
<path d="M1 12.7143V3C1 1.89543 1.89543 1 3 1H12.7143C13.8189 1 14.7143 1.89543 14.7143 3V12.7143C14.7143 13.8189 13.8189 14.7143 12.7143 14.7143H3C1.89543 14.7143 1 13.8189 1 12.7143Z" stroke="#858585"/>
<path d="M26.1428 19.2856C29.9299 19.2856 32.9999 22.3557 32.9999 26.1428C32.9999 29.9299 29.9299 32.9999 26.1428 32.9999C22.3557 32.9999 19.2856 29.9299 19.2856 26.1428C19.2856 22.3557 22.3557 19.2856 26.1428 19.2856Z" stroke="#858585"/>
<path d="M1 30.9999V21.2856C1 20.1811 1.89543 19.2856 3 19.2856H12.7143C13.8189 19.2856 14.7143 20.1811 14.7143 21.2856V30.9999C14.7143 32.1045 13.8189 32.9999 12.7143 32.9999H3C1.89543 32.9999 1 32.1045 1 30.9999Z" stroke="#858585"/>
<path d="M19.2856 12.7143V3C19.2856 1.89543 20.1811 1 21.2856 1H30.9999C32.1045 1 32.9999 1.89543 32.9999 3V12.7143C32.9999 13.8189 32.1045 14.7143 30.9999 14.7143H21.2856C20.1811 14.7143 19.2856 13.8189 19.2856 12.7143Z" stroke="#858585"/>
</svg>