<svg fill="none" height="19" viewBox="0 0 22 19" width="22" xmlns="http://www.w3.org/2000/svg">
    <path clip-rule="evenodd" d="M7.4277 0.6875C7.8477 0.6875 8.1887 1.02349 8.1887 1.43831C8.1887 1.85215 7.8487 2.18814 7.4277 2.18814L5.7987 2.18913C4.4467 2.1911 3.3467 3.27594 3.3467 4.60907V6.47724C3.3467 6.89108 3.0047 7.22806 2.5847 7.22806C2.1647 7.22806 1.8237 6.89108 1.8237 6.47724V4.60907C1.8237 2.44925 3.6067 0.690456 5.7977 0.688485L7.4267 0.6875H7.4277ZM14.6006 0.687794H16.1936C18.3906 0.687794 20.1766 2.44758 20.1766 4.61232V6.47754C20.1766 6.89137 19.8366 7.22835 19.4156 7.22835C18.9956 7.22835 18.6546 6.89137 18.6546 6.47754V4.61232C18.6546 3.27524 17.5506 2.18745 16.1936 2.18745H14.6006C14.1806 2.18745 13.8396 1.85244 13.8396 1.43861C13.8396 1.02379 14.1806 0.687794 14.6006 0.687794ZM13.7625 4.44817H8.2385C6.9745 4.46098 5.9585 5.47882 5.9695 6.72525V7.9766C5.9725 8.12243 6.0915 8.24165 6.2395 8.24658H15.7595C15.9085 8.24264 16.0275 8.12342 16.0325 7.9766V6.72525C16.0335 6.12322 15.7975 5.54483 15.3715 5.11425C14.9485 4.6876 14.3675 4.44817 13.7625 4.44817ZM0.762 9.77225H21.239C21.659 9.77225 22 10.1082 22 10.5231C22 10.9369 21.659 11.2719 21.239 11.2719H20.177V14.8486C20.177 17.0144 18.39 18.7741 16.194 18.7741H14.601C14.18 18.7741 13.839 18.4381 13.839 18.0233C13.839 17.6095 14.18 17.2735 14.601 17.2735H16.194C17.551 17.2735 18.655 16.1867 18.655 14.8486V11.2719H16.032V12.2681C16.042 13.5145 15.027 14.5333 13.762 14.5451H8.238C6.974 14.5333 5.959 13.5145 5.969 12.2681V11.2719H3.346V14.8526C3.346 16.1857 4.447 17.2705 5.8 17.2725L7.428 17.2735C7.848 17.2735 8.189 17.6095 8.189 18.0233C8.188 18.4381 7.848 18.7741 7.427 18.7741L5.798 18.7731C3.607 18.7712 1.823 17.0124 1.823 14.8526V11.2719H0.762C0.342 11.2719 0 10.9369 0 10.5231C0 10.1082 0.342 9.77225 0.762 9.77225Z"
        fill="white"
        fill-rule="evenodd" />
</svg>
