<svg width="15" height="18" viewBox="0 0 15 18" fill="none" xmlns="http://www.w3.org/2000/svg">
<path d="M11.4681 6.08457V4.36775C11.4681 1.96419 9.59246 0.0756836 7.20528 0.0756836C4.8181 0.0756836 2.94246 1.96419 2.94246 4.36775V6.08457C1.4931 6.08457 0.384766 7.20051 0.384766 8.65981V14.6687C0.384766 16.128 1.4931 17.2439 2.94246 17.2439H11.4681C12.9175 17.2439 14.0258 16.128 14.0258 14.6687V8.65981C14.0258 7.20051 12.9175 6.08457 11.4681 6.08457ZM4.64759 4.36775C4.64759 2.90844 5.75592 1.79251 7.20528 1.79251C8.65464 1.79251 9.76297 2.90844 9.76297 4.36775V6.08457H4.64759V4.36775ZM8.05784 12.9519C8.05784 13.4669 7.71682 13.8103 7.20528 13.8103C6.69374 13.8103 6.35271 13.4669 6.35271 12.9519V10.3766C6.35271 9.86158 6.69374 9.51822 7.20528 9.51822C7.71682 9.51822 8.05784 9.86158 8.05784 10.3766V12.9519Z" fill="#9A9A9A"/>
</svg>
